{
.appVersion = "3260";
.formatVersion = 3;
DisplayStrings = (
K,
V,
ABCDEFGHIJKLMNOPQRSTUVWXYZ,
"ngan van"
);
axes = (
{
name = Bleed;
tag = BLED;
}
);
date = "2024-05-03 08:37:09 +0000";
familyName = ThousandCloud;
fontMaster = (
{
axesValues = (
200
);
guides = (
{
lockAngle = 1;
pos = (298,387);
},
{
lockAngle = 1;
name = base;
pos = (486,70);
},
{
locked = 1;
pos = (397,636);
}
);
id = m01;
metricValues = (
{
over = 16;
pos = 800;
},
{
over = 16;
pos = 700;
},
{
over = 16;
pos = 500;
},
{
over = -16;
},
{
over = -16;
pos = -200;
},
{
}
);
name = Regular;
visible = 1;
},
{
axesValues = (
0
);
guides = (
{
lockAngle = 1;
pos = (298,387);
},
{
lockAngle = 1;
name = base;
pos = (486,70);
},
{
locked = 1;
pos = (338,636);
}
);
iconName = Bold_Extended;
id = m002;
metricValues = (
{
over = 16;
pos = 800;
},
{
over = 16;
pos = 700;
},
{
over = 16;
pos = 500;
},
{
over = -16;
},
{
over = -16;
pos = -200;
},
{
}
);
name = BLEED;
}
);
glyphs = (
{
glyphname = A;
lastChange = "2024-05-18 03:50:51 +0000";
layers = (
{
backgroundImage = {
imagePath = "/Users/jillymun/Desktop/Screenshot 2024-05-03 at 4.40.49 AM.png";
locked = 1;
pos = (-166,-117);
scale = (3.1978,3.1978);
};
layerId = m01;
shapes = (
{
closed = 1;
nodes = (
(80,54,o),
(221,301,o),
(255,386,cs),
(293,479,o),
(354,565,o),
(386,812,cs),
(386,817,o),
(394,818,o),
(394,812,cs),
(394,740,o),
(410,751,o),
(431,731,cs),
(456,709,o),
(441,675,o),
(414,655,cs),
(402,648,o),
(401,640,o),
(403,621,cs),
(421,504,o),
(453,419,o),
(493,310,cs),
(532,203,o),
(567,118,o),
(629,76,cs),
(676,43,o),
(716,35,o),
(760,31,c),
(774,27,o),
(760,11,o),
(741,7,cs),
(723,1,o),
(703,0,o),
(682,0,cs),
(591,0,o),
(561,35,o),
(536,76,cs),
(517,107,o),
(484,198,o),
(468,239,cs),
(459,264,o),
(422,283,o),
(399,283,cs),
(331,283,o),
(273,251,o),
(217,203,cs),
(190,179,o),
(161,152,o),
(139,119,cs),
(98,56,o),
(49,-3,o),
(-2,-57,cs),
(-10,-66,o),
(-25,-55,o),
(-18,-48,cs)
);
},
{
closed = 1;
nodes = (
(417,395,o),
(394,476,o),
(374,565,c),
(353,503,o),
(326,441,o),
(289,376,cs),
(287,375,o),
(232,272,o),
(194,213,c),
(235,246,o),
(282,284,o),
(321,301,cs),
(370,322,o),
(402,326,o),
(444,326,c)
);
}
);
width = 756;
},
{
backgroundImage = {
imagePath = "/Users/jillymun/Desktop/Screenshot 2024-05-03 at 4.40.49 AM.png";
locked = 1;
pos = (-166,-117);
scale = (3.1978,3.1978);
};
layerId = m002;
shapes = (
{
closed = 1;
nodes = (
(80,54,o),
(221,301,o),
(255,386,cs),
(293,479,o),
(354,565,o),
(386,812,c),
(386,870,o),
(507,927,o),
(433,820,cs),
(392,760,o),
(438,765,o),
(459,745,cs),
(484,723,o),
(471,671,o),
(444,651,cs),
(432,644,o),
(420,632,o),
(422,613,cs),
(440,496,o),
(458,387,o),
(561,334,cs),
(676,275,o),
(702,211,o),
(661,119,cs),
(637,66,o),
(711,22,o),
(774,61,cs),
(837,99,o),
(849,-16,o),
(763,-24,cs),
(744,-26,o),
(703,-8,o),
(682,-8,cs),
(591,-8,o),
(561,35,o),
(536,76,cs),
(517,107,o),
(468,118,o),
(468,213,cs),
(468,263,o),
(422,283,o),
(399,283,cs),
(331,283,o),
(273,251,o),
(217,203,cs),
(190,179,o),
(161,152,o),
(139,119,cs),
(98,56,o),
(49,-3,o),
(-2,-57,cs),
(-10,-66,o),
(-25,-55,o),
(-18,-48,cs)
);
},
{
closed = 1;
nodes = (
(429,395,o),
(394,476,o),
(374,565,c),
(353,503,o),
(326,441,o),
(289,376,cs),
(287,375,o),
(232,272,o),
(194,213,c),
(235,246,o),
(301,290,o),
(325,325,cs),
(359,375,o),
(401,316,o),
(410,341,cs)
);
}
);
width = 756;
}
);
unicode = (65,97);
},
{
glyphname = B;
lastChange = "2024-05-18 03:50:51 +0000";
layers = (
{
backgroundImage = {
imagePath = "/Users/jillymun/Desktop/Screenshot 2024-05-03 at 5.33.48 AM.png";
locked = 1;
pos = (-55,-101);
scale = (2.845,2.845);
};
layerId = m01;
shapes = (
{
closed = 1;
nodes = (
(28,710,o),
(29,702,o),
(36,698,c),
(54,697,o),
(76,698,o),
(83,698,cs),
(102,698,o),
(121,668,o),
(121,650,cs),
(124,485,o),
(127,321,o),
(130,156,cs),
(131,127,o),
(129,82,o),
(124,69,cs),
(109,32,o),
(85,3,o),
(58,-24,cs),
(52,-30,o),
(63,-39,o),
(70,-33,cs),
(122,10,o),
(185,87,o),
(177,217,c),
(172,386,l),
(281,386,o),
(430,386,o),
(539,386,c),
(540,298,o),
(546,160,o),
(504,105,c),
(462,50,o),
(390,-8,o),
(271,16,cs),
(255,19,o),
(249,9,o),
(265,4,cs),
(306,-9,ls),
(377,-31,o),
(488,17,o),
(538,78,cs),
(588,138,o),
(596,199,o),
(606,305,cs),
(609,342,o),
(621,386,o),
(651,386,cs),
(664,386,o),
(677,386,o),
(690,386,cs),
(698,386,o),
(699,400,o),
(690,400,cs),
(656,400,o),
(661,429,o),
(626,443,cs),
(592,457,o),
(556,439,o),
(543,404,c),
(523,404,o),
(504,404,o),
(484,404,c),
(495,417,o),
(502,448,o),
(502,476,cs),
(502,551,o),
(502,623,o),
(502,698,c),
(538,698,o),
(565,698,o),
(601,698,cs),
(611,698,o),
(613,716,o),
(601,716,c),
(583,716,o),
(575,712,o),
(556,729,cs),
(518,763,o),
(478,759,o),
(432,716,c),
(310,716,o),
(158,716,o),
(36,716,c)
);
},
{
closed = 1;
nodes = (
(251,698,o),
(374,698,o),
(457,698,c),
(457,614,o),
(457,532,o),
(457,448,cs),
(457,424,o),
(447,404,o),
(432,404,cs),
(359,404,o),
(245,404,o),
(172,404,c),
(171,503,o),
(169,599,o),
(168,698,c)
);
}
);
width = 721;
},
{
backgroundImage = {
imagePath = "/Users/jillymun/Desktop/Screenshot 2024-05-03 at 5.33.48 AM.png";
locked = 1;
pos = (-55,-101);
scale = (2.845,2.845);
};
layerId = m002;
shapes = (
{
closed = 1;
nodes = (
(28,710,o),
(29,702,o),
(36,698,c),
(54,697,o),
(76,698,o),
(83,698,cs),
(102,698,o),
(121,668,o),
(121,650,cs),
(124,485,o),
(127,321,o),
(130,156,cs),
(131,127,o),
(129,82,o),
(124,69,cs),
(109,32,o),
(85,3,o),
(58,-24,cs),
(52,-30,o),
(63,-39,o),
(70,-33,cs),
(122,10,o),
(245,59,o),
(221,194,cs),
(192,354,ls),
(172,463,o),
(436,250,o),
(539,386,c),
(540,298,o),
(546,160,o),
(504,105,c),
(462,50,o),
(390,-8,o),
(271,16,cs),
(255,19,o),
(249,9,o),
(265,4,cs),
(306,-9,ls),
(377,-31,o),
(627,17,o),
(677,78,cs),
(727,138,o),
(596,199,o),
(606,305,cs),
(609,342,o),
(621,382,o),
(651,382,cs),
(664,382,o),
(684,372,o),
(697,372,cs),
(734,372,o),
(723,411,o),
(702,411,cs),
(668,411,o),
(674,443,o),
(639,457,cs),
(605,471,o),
(592,467,o),
(556,434,cs),
(541,420,o),
(522,415,o),
(502,415,c),
(513,428,o),
(502,448,o),
(502,476,cs),
(502,551,o),
(502,623,o),
(502,698,c),
(538,698,o),
(565,698,o),
(601,698,cs),
(611,698,o),
(613,716,o),
(601,716,c),
(583,716,o),
(575,712,o),
(556,729,cs),
(518,763,o),
(478,759,o),
(432,716,c),
(310,716,o),
(228,819,o),
(36,716,c)
);
},
{
closed = 1;
nodes = (
(251,698,o),
(374,698,o),
(457,698,c),
(457,614,o),
(457,532,o),
(457,448,cs),
(457,424,o),
(447,404,o),
(432,404,cs),
(359,404,o),
(329,500,o),
(172,404,c),
(171,503,o),
(286,605,o),
(168,698,c)
);
}
);
width = 721;
}
);
unicode = (66,98);
},
{
glyphname = C;
lastChange = "2024-05-18 04:02:42 +0000";
layers = (
{
backgroundImage = {
imagePath = "/Users/jillymun/Desktop/Screenshot 2024-05-09 at 12.35.17 PM.png";
locked = 1;
pos = (41,-71);
scale = (6.6957,6.6957);
};
layerId = m01;
shapes = (
{
closed = 1;
nodes = (
(580,698,o),
(616,698,o),
(652,698,cs),
(662,698,o),
(664,716,o),
(652,716,c),
(634,716,o),
(626,712,o),
(607,729,cs),
(569,763,o),
(529,759,o),
(483,716,c),
(361,716,o),
(415,716,o),
(293,716,c),
(285,710,o),
(287,702,o),
(294,698,c),
(312,697,o),
(324,698,o),
(331,698,cs),
(414,698,o),
(461,698,o),
(544,698,cs)
);
},
{
closed = 1;
nodes = (
(526,560,ls),
(526,552,o),
(527,540,o),
(525,530,cs),
(523,520,o),
(516,508,o),
(512,503,cs),
(507,496,o),
(439,415,o),
(434,407,cs),
(429,400,o),
(439,393,o),
(444,397,cs),
(480,426,o),
(546,479,o),
(551,484,cs),
(555,488,o),
(565,494,o),
(572,510,cs),
(576,519,o),
(578,548,o),
(578,552,cs),
(578,577,o),
(579,618,o),
(579,650,cs),
(579,673,o),
(603,702,o),
(634,702,c),
(610,701,o),
(549,703,o),
(525,702,c)
);
},
{
closed = 1;
nodes = (
(166,716,o),
(60,568,o),
(60,349,cs),
(60,130,o),
(219,-17,o),
(361,-17,cs),
(503,-17,o),
(578,90,o),
(586,109,cs),
(594,128,o),
(605,123,o),
(618,130,cs),
(631,137,o),
(647,151,o),
(647,173,cs),
(647,198,o),
(605,215,o),
(605,237,cs),
(605,276,o),
(605,280,o),
(605,319,c),
(605,333,o),
(587,336,o),
(587,318,cs),
(587,259,o),
(583,185,o),
(572,159,c),
(561,133,o),
(504,12,o),
(361,12,cs),
(218,12,o),
(145,175,o),
(145,348,cs),
(145,504,o),
(170,698,o),
(324,698,c),
(320,704,o),
(317,710,o),
(313,716,c)
);
}
);
width = 680;
},
{
backgroundImage = {
imagePath = "/Users/jillymun/Desktop/Screenshot 2024-05-09 at 12.35.17 PM.png";
locked = 1;
pos = (41,-71);
scale = (6.6957,6.6957);
};
layerId = m002;
shapes = (
{
closed = 1;
nodes = (
(580,698,o),
(598,710,o),
(713,665,cs),
(741,654,o),
(804,683,o),
(738,683,cs),
(657,683,o),
(644,744,o),
(642,776,cs),
(639,827,o),
(550,822,o),
(487,756,cs),
(423,689,o),
(415,716,o),
(293,716,c),
(285,710,o),
(287,702,o),
(294,698,c),
(312,697,o),
(326,665,o),
(391,665,cs),
(474,665,o),
(461,698,o),
(544,698,cs)
);
},
{
closed = 1;
nodes = (
(526,560,ls),
(526,552,o),
(527,540,o),
(525,530,cs),
(523,520,o),
(516,508,o),
(512,503,cs),
(507,496,o),
(379,378,o),
(374,370,cs),
(349,335,o),
(384,341,o),
(402,356,cs),
(522,435,o),
(555,422,o),
(561,424,cs),
(646,456,o),
(649,470,o),
(656,486,cs),
(660,495,o),
(673,531,o),
(618,568,cs),
(594,584,o),
(579,618,o),
(579,650,cs),
(579,673,o),
(603,702,o),
(634,702,c),
(610,701,o),
(549,703,o),
(525,702,c)
);
},
{
closed = 1;
nodes = (
(184,780,o),
(60,568,o),
(60,349,cs),
(60,130,o),
(211,-15,o),
(350,-35,cs),
(768,-95,o),
(578,90,o),
(586,109,cs),
(594,128,o),
(614,120,o),
(629,114,cs),
(668,98,o),
(737,150,o),
(738,171,cs),
(742,249,o),
(586,187,o),
(629,264,cs),
(656,313,o),
(600,348,o),
(634,368,cs),
(717,416,o),
(619,439,o),
(578,358,cs),
(551,305,o),
(551,227,o),
(551,145,cs),
(551,117,o),
(504,12,o),
(361,12,cs),
(218,12,o),
(145,175,o),
(145,348,cs),
(145,504,o),
(170,698,o),
(324,698,c),
(320,704,o),
(480,751,o),
(329,766,cs)
);
}
);
width = 680;
}
);
unicode = (67,99);
},
{
glyphname = D;
lastChange = "2024-05-18 04:15:33 +0000";
layers = (
{
background = {
shapes = (
{
closed = 1;
nodes = (
(475,620,ls),
(475,612,o),
(476,600,o),
(474,590,cs),
(472,580,o),
(465,568,o),
(461,563,cs),
(456,556,o),
(388,475,o),
(383,467,cs),
(378,460,o),
(388,453,o),
(393,457,cs),
(429,486,o),
(495,539,o),
(500,544,cs),
(504,548,o),
(514,554,o),
(521,570,cs),
(525,579,o),
(527,608,o),
(527,612,cs),
(527,637,o),
(527,637,o),
(528,650,cs),
(530,673,o),
(552,702,o),
(583,702,c),
(559,701,o),
(498,703,o),
(474,702,c)
);
}
);
};
backgroundImage = {
imagePath = "/Users/jillymun/Desktop/Screenshot 2024-05-09 at 3.43.35 PM.png";
locked = 1;
pos = (-61,-130);
scale = (6.3558,6.3558);
};
layerId = m01;
shapes = (
{
closed = 1;
nodes = (
(589,698,o),
(625,698,o),
(661,698,cs),
(671,698,o),
(673,716,o),
(661,716,c),
(643,716,o),
(635,712,o),
(616,729,cs),
(578,763,o),
(538,759,o),
(492,716,c),
(370,716,o),
(158,716,o),
(36,716,c),
(28,710,o),
(29,702,o),
(36,698,c),
(54,697,o),
(76,698,o),
(83,698,cs),
(102,698,o),
(121,668,o),
(121,650,cs),
(124,485,o),
(127,321,o),
(130,156,cs),
(131,127,o),
(129,82,o),
(124,69,cs),
(109,32,o),
(85,3,o),
(58,-24,cs),
(52,-30,o),
(63,-39,o),
(70,-33,cs),
(122,10,o),
(185,87,o),
(177,217,c),
(172,403,ls),
(169,502,o),
(169,599,o),
(168,698,c),
(251,698,o),
(470,698,o),
(553,698,cs)
);
},
{
closed = 1;
nodes = (
(602,637,o),
(602,637,o),
(603,650,cs),
(605,673,o),
(627,702,o),
(658,702,c),
(634,701,o),
(547,703,o),
(523,702,c),
(523,564,o),
(526,515,o),
(526,388,cs),
(526,311,o),
(517,1,o),
(344,1,cs),
(232,1,ls),
(220,1,o),
(219,-17,o),
(232,-17,cs),
(269,-17,o),
(223,-17,o),
(344,-17,cs),
(465,-17,o),
(602,108,o),
(602,381,cs),
(602,654,o),
(602,581,o),
(602,612,cs)
);
}
);
width = 694;
},
{
background = {
shapes = (
{
closed = 1;
nodes = (
(475,620,ls),
(475,612,o),
(476,600,o),
(474,590,cs),
(472,580,o),
(465,568,o),
(461,563,cs),
(456,556,o),
(388,475,o),
(383,467,cs),
(378,460,o),
(388,453,o),
(393,457,cs),
(429,486,o),
(495,539,o),
(500,544,cs),
(504,548,o),
(514,554,o),
(521,570,cs),
(525,579,o),
(527,608,o),
(527,612,cs),
(527,637,o),
(527,637,o),
(528,650,cs),
(530,673,o),
(552,702,o),
(583,702,c),
(559,701,o),
(498,703,o),
(474,702,c)
);
}
);
};
backgroundImage = {
imagePath = "/Users/jillymun/Desktop/Screenshot 2024-05-09 at 3.43.35 PM.png";
locked = 1;
pos = (-61,-130);
scale = (6.3558,6.3558);
};
layerId = m002;
shapes = (
{
closed = 1;
nodes = (
(589,698,o),
(625,698,o),
(661,698,cs),
(671,698,o),
(708,754,o),
(667,732,cs),
(649,722,o),
(615,727,o),
(634,747,cs),
(689,805,o),
(594,885,o),
(492,747,c),
(389,700,o),
(158,716,o),
(36,716,c),
(28,710,o),
(29,702,o),
(36,698,c),
(54,697,o),
(76,698,o),
(83,698,cs),
(102,698,o),
(121,668,o),
(121,650,cs),
(124,485,o),
(127,321,o),
(130,156,cs),
(131,127,o),
(129,82,o),
(124,69,cs),
(109,32,o),
(85,3,o),
(58,-24,cs),
(52,-30,o),
(63,-39,o),
(70,-33,cs),
(122,10,o),
(283,151,o),
(223,287,cs),
(172,403,ls),
(131,496,o),
(169,599,o),
(168,698,c),
(251,698,o),
(470,698,o),
(553,698,cs)
);
},
{
closed = 1;
nodes = (
(602,637,o),
(602,637,o),
(603,650,cs),
(605,673,o),
(627,702,o),
(658,702,c),
(634,701,o),
(547,703,o),
(523,702,c),
(523,564,o),
(526,515,o),
(526,388,cs),
(526,311,o),
(548,1,o),
(344,1,cs),
(232,1,ls),
(220,1,o),
(219,-17,o),
(232,-17,cs),
(269,-17,o),
(223,-17,o),
(344,-17,cs),
(465,-17,o),
(710,150,o),
(623,387,cs),
(590,477,o),
(602,581,o),
(602,612,cs)
);
}
);
width = 694;
}
);
unicode = (68,100);
},
{
glyphname = E;
lastChange = "2024-05-18 04:22:38 +0000";
layers = (
{
layerId = m01;
shapes = (
{
closed = 1;
nodes = (
(529,698,o),
(565,698,o),
(601,698,cs),
(611,698,o),
(613,716,o),
(601,716,c),
(583,716,o),
(575,712,o),
(556,729,cs),
(518,763,o),
(478,759,o),
(432,716,c),
(310,716,o),
(158,716,o),
(36,716,c),
(28,710,o),
(29,702,o),
(36,698,c),
(54,697,o),
(76,698,o),
(83,698,cs),
(102,698,o),
(121,668,o),
(121,650,cs),
(124,485,o),
(127,321,o),
(130,156,cs),
(131,127,o),
(129,82,o),
(124,69,cs),
(109,32,o),
(85,3,o),
(58,-24,cs),
(52,-30,o),
(63,-39,o),
(70,-33,cs),
(122,10,o),
(185,87,o),
(177,217,c),
(172,403,ls),
(169,502,o),
(169,599,o),
(168,698,c),
(251,698,o),
(410,698,o),
(493,698,cs)
);
},
{
closed = 1;
nodes = (
(475,620,ls),
(475,612,o),
(476,600,o),
(474,590,cs),
(472,580,o),
(465,568,o),
(461,563,cs),
(456,556,o),
(388,475,o),
(383,467,cs),
(378,460,o),
(388,453,o),
(393,457,cs),
(429,486,o),
(495,539,o),
(500,544,cs),
(504,548,o),
(514,554,o),
(521,570,cs),
(525,579,o),
(527,608,o),
(527,612,cs),
(527,637,o),
(527,637,o),
(528,650,cs),
(530,673,o),
(552,702,o),
(583,702,c),
(559,701,o),
(498,703,o),
(474,702,c)
);
},
{
closed = 1;
nodes = (
(529,368,o),
(565,368,o),
(601,368,cs),
(611,368,o),
(613,386,o),
(601,386,c),
(583,386,o),
(575,382,o),
(556,399,cs),
(518,433,o),
(478,429,o),
(432,386,c),
(310,386,o),
(284,386,o),
(162,386,c),
(154,380,o),
(156,372,o),
(163,368,c),
(181,367,o),
(193,368,o),
(200,368,cs),
(283,368,o),
(410,368,o),
(493,368,cs)
);
},
{
closed = 1;
nodes = (
(529,70,o),
(565,70,o),
(601,70,cs),
(611,70,o),
(613,88,o),
(601,88,c),
(583,88,o),
(575,84,o),
(556,101,cs),
(518,135,o),
(478,131,o),
(432,88,c),
(310,88,o),
(264,88,o),
(142,88,c),
(134,82,o),
(136,74,o),
(143,70,c),
(161,69,o),
(193,70,o),
(200,70,cs),
(283,70,o),
(410,70,o),
(493,70,cs)
);
}
);
width = 629;
},
{
layerId = m002;
shapes = (
{
closed = 1;
nodes = (
(529,698,o),
(565,698,o),
(601,698,cs),
(611,698,o),
(613,716,o),
(601,716,c),
(605,882,o),
(558,756,o),
(556,758,c),
(518,792,o),
(409,735,o),
(346,735,cs),
(224,735,o),
(158,716,o),
(36,716,c),
(28,710,o),
(29,702,o),
(36,698,c),
(54,697,o),
(76,698,o),
(83,698,cs),
(102,698,o),
(121,668,o),
(121,650,cs),
(124,485,o),
(127,321,o),
(130,156,cs),
(131,127,o),
(129,82,o),
(124,69,cs),
(109,32,o),
(85,3,o),
(58,-24,cs),
(52,-30,o),
(63,-39,o),
(70,-33,cs),
(122,10,o),
(185,87,o),
(177,217,c),
(172,403,ls),
(169,502,o),
(317,500,o),
(168,698,c),
(251,698,o),
(410,698,o),
(493,698,cs)
);
},
{
closed = 1;
nodes = (
(475,620,ls),
(475,612,o),
(476,600,o),
(474,590,cs),
(472,580,o),
(465,568,o),
(461,563,cs),
(456,556,o),
(388,475,o),
(383,467,cs),
(378,460,o),
(387,457,o),
(393,457,cs),
(591,450,o),
(495,539,o),
(500,544,cs),
(504,548,o),
(514,554,o),
(521,570,cs),
(525,579,o),
(613,565,o),
(569,598,cs),
(547,615,o),
(527,637,o),
(528,650,cs),
(530,673,o),
(552,702,o),
(583,702,c),
(559,701,o),
(498,703,o),
(474,702,c)
);
},
{
closed = 1;
nodes = (
(529,368,o),
(565,368,o),
(601,368,cs),
(611,368,o),
(613,386,o),
(601,386,c),
(583,386,o),
(586,404,o),
(567,421,cs),
(529,455,o),
(478,429,o),
(432,386,c),
(310,386,o),
(284,386,o),
(162,386,c),
(154,380,o),
(156,372,o),
(163,368,c),
(181,367,o),
(193,368,o),
(200,368,cs),
(283,368,o),
(410,368,o),
(493,368,cs)
);
},
{
closed = 1;
nodes = (
(529,70,o),
(565,70,o),
(601,70,cs),
(611,70,o),
(613,88,o),
(601,88,c),
(583,88,o),
(567,116,o),
(583,136,cs),
(604,162,o),
(495,286,o),
(396,156,cs),
(330,69,o),
(264,88,o),
(142,88,c),
(134,82,o),
(136,74,o),
(143,70,c),
(161,69,o),
(193,70,o),
(200,70,cs),
(283,70,o),
(410,70,o),
(493,70,cs)
);
}
);
width = 629;
}
);
unicode = (69,101);
},
{
glyphname = F;
lastChange = "2024-05-18 04:21:43 +0000";
layers = (
{
layerId = m01;
shapes = (
{
closed = 1;
nodes = (
(529,698,o),
(565,698,o),
(601,698,cs),
(611,698,o),
(613,716,o),
(601,716,c),
(583,716,o),
(575,712,o),
(556,729,cs),
(518,763,o),
(478,759,o),
(432,716,c),
(310,716,o),
(158,716,o),
(36,716,c),
(28,710,o),
(29,702,o),
(36,698,c),
(54,697,o),
(76,698,o),
(83,698,cs),
(102,698,o),
(121,668,o),
(121,650,cs),
(124,485,o),
(127,321,o),
(130,156,cs),
(131,127,o),
(129,82,o),
(124,69,cs),
(109,32,o),
(85,3,o),
(58,-24,cs),
(52,-30,o),
(63,-39,o),
(70,-33,cs),
(122,10,o),
(185,87,o),
(177,217,c),
(172,403,ls),
(169,502,o),
(169,599,o),
(168,698,c),
(251,698,o),
(410,698,o),
(493,698,cs)
);
},
{
closed = 1;
nodes = (
(529,368,o),
(565,368,o),
(601,368,cs),
(611,368,o),
(613,386,o),
(601,386,c),
(583,386,o),
(575,382,o),
(556,399,cs),
(518,433,o),
(478,429,o),
(432,386,c),
(310,386,o),
(284,386,o),
(162,386,c),
(154,380,o),
(156,372,o),
(163,368,c),
(181,367,o),
(193,368,o),
(200,368,cs),
(283,368,o),
(410,368,o),
(493,368,cs)
);
}
);
width = 629;
},
{
layerId = m002;
shapes = (
{
closed = 1;
nodes = (
(529,698,o),
(565,698,o),
(601,698,cs),
(611,698,o),
(613,716,o),
(601,716,c),
(583,716,o),
(602,767,o),
(583,784,cs),
(545,818,o),
(494,746,o),
(412,746,cs),
(290,746,o),
(169,838,o),
(36,716,c),
(28,710,o),
(29,702,o),
(36,698,c),
(54,697,o),
(76,698,o),
(83,698,cs),
(102,698,o),
(121,668,o),
(121,650,cs),
(124,485,o),
(127,321,o),
(130,156,cs),
(131,127,o),
(129,82,o),
(124,69,cs),
(109,32,o),
(85,3,o),
(58,-24,cs),
(40,-42,o),
(61,-61,o),
(70,-60,cs),
(471,-27,o),
(204,116,o),
(193,217,cs),
(172,403,ls),
(161,502,o),
(169,599,o),
(168,698,c),
(251,698,o),
(410,698,o),
(493,698,cs)
);
},
{
closed = 1;
nodes = (
(529,368,o),
(565,368,o),
(601,368,cs),
(611,368,o),
(613,386,o),
(601,386,c),
(583,386,o),
(602,491,o),
(583,508,cs),
(545,542,o),
(523,419,o),
(419,419,cs),
(297,419,o),
(284,386,o),
(162,386,c),
(154,380,o),
(156,372,o),
(163,368,c),
(181,367,o),
(193,368,o),
(200,368,cs),
(283,368,o),
(410,368,o),
(493,368,cs)
);
}
);
width = 629;
}
);
unicode = (70,102);
},
{
glyphname = G;
lastChange = "2024-05-18 04:23:26 +0000";
layers = (
{
backgroundImage = {
imagePath = "/Users/jillymun/Desktop/Screenshot 2024-05-09 at 4.15.15 PM.png";
locked = 1;
pos = (40,-57);
scale = (6.069,6.069);
};
layerId = m01;
shapes = (
{
closed = 1;
nodes = (
(580,698,o),
(616,698,o),
(652,698,cs),
(657,698,o),
(660,703,o),
(660,708,cs),
(660,712,o),
(658,716,o),
(652,716,c),
(634,716,o),
(626,712,o),
(607,729,cs),
(590,744,o),
(573,752,o),
(555,752,cs),
(532,752,o),
(509,740,o),
(483,716,c),
(361,716,o),
(415,716,o),
(293,716,c),
(289,713,o),
(288,710,o),
(288,707,cs),
(288,704,o),
(290,700,o),
(294,698,c),
(312,697,o),
(324,698,o),
(331,698,cs),
(414,698,o),
(461,698,o),
(544,698,cs)
);
},
{
closed = 1;
nodes = (
(526,560,ls),
(526,552,o),
(527,540,o),
(525,530,cs),
(523,520,o),
(516,508,o),
(512,503,cs),
(507,496,o),
(439,415,o),
(434,407,cs),
(430,401,o),
(436,396,o),
(441,396,cs),
(442,396,o),
(443,396,o),
(444,397,cs),
(480,426,o),
(546,479,o),
(551,484,cs),
(555,488,o),
(565,494,o),
(572,510,cs),
(576,519,o),
(578,548,o),
(578,552,cs),
(578,577,o),
(579,618,o),
(579,650,cs),
(579,673,o),
(603,702,o),
(634,702,c),
(610,701,o),
(549,703,o),
(525,702,c)
);
},
{
closed = 1;
nodes = (
(651,291,o),
(677,272,o),
(677,307,cs),
(678,357,o),
(643,355,o),
(623,355,cs),
(605,355,o),
(589,346,o),
(583,326,cs),
(574,298,o),
(567,295,o),
(553,295,cs),
(487,295,o),
(460,295,o),
(452,295,cs),
(445,295,o),
(408,292,o),
(403,307,cs),
(395,331,o),
(384,360,o),
(357,387,cs),
(350,394,o),
(343,397,o),
(339,397,cs),
(333,397,o),
(330,394,o),
(330,391,cs),
(330,389,o),
(331,388,o),
(332,387,cs),
(346,376,o),
(359,361,o),
(359,348,cs),
(359,340,o),
(353,326,o),
(353,310,cs),
(353,289,o),
(363,262,o),
(406,262,cs),
(457,262,o),
(507,262,o),
(558,262,cs),
(571,262,o),
(575,243,o),
(575,219,cs),
(575,185,o),
(566,142,o),
(560,127,cs),
(549,101,o),
(514,12,o),
(371,12,cs),
(228,12,o),
(145,175,o),
(145,348,cs),
(145,504,o),
(170,698,o),
(324,698,c),
(320,704,o),
(317,710,o),
(313,716,c),
(166,716,o),
(60,568,o),
(60,349,cs),
(60,130,o),
(229,-17,o),
(371,-17,cs),
(513,-17,o),
(588,90,o),
(596,109,cs),
(614,148,o),
(620,193,o),
(620,232,cs),
(620,257,o),
(618,263,o),
(618,272,cs),
(618,276,o),
(618,281,o),
(632,285,cs)
);
}
);
width = 727;
},
{
backgroundImage = {
imagePath = "/Users/jillymun/Desktop/Screenshot 2024-05-09 at 4.15.15 PM.png";
locked = 1;
pos = (40,-57);
scale = (6.069,6.069);
};
layerId = m002;
shapes = (
{
closed = 1;
nodes = (
(580,698,o),
(616,698,o),
(652,698,cs),
(657,698,o),
(660,703,o),
(660,708,cs),
(660,712,o),
(658,716,o),
(652,716,c),
(634,716,o),
(652,753,o),
(633,770,cs),
(616,785,o),
(595,779,o),
(577,779,cs),
(554,779,o),
(509,740,o),
(483,716,c),
(361,716,o),
(415,716,o),
(293,716,c),
(289,713,o),
(288,710,o),
(288,707,cs),
(288,704,o),
(290,700,o),
(294,698,c),
(312,697,o),
(324,698,o),
(331,698,cs),
(414,698,o),
(461,698,o),
(544,698,cs)
);
},
{
closed = 1;
nodes = (
(526,560,ls),
(526,552,o),
(527,540,o),
(525,530,cs),
(523,520,o),
(516,508,o),
(512,503,cs),
(507,496,o),
(439,415,o),
(434,407,cs),
(430,401,o),
(436,396,o),
(441,396,cs),
(442,396,o),
(443,396,o),
(444,397,cs),
(480,426,o),
(546,479,o),
(551,484,cs),
(555,488,o),
(572,484,o),
(579,500,cs),
(583,509,o),
(628,522,o),
(613,590,cs),
(607,615,o),
(579,618,o),
(579,650,cs),
(579,673,o),
(603,702,o),
(634,702,c),
(610,701,o),
(549,703,o),
(525,702,c)
);
},
{
closed = 1;
nodes = (
(651,291,o),
(707,263,o),
(707,298,cs),
(708,348,o),
(714,394,o),
(633,381,cs),
(615,378,o),
(583,374,o),
(577,354,cs),
(568,326,o),
(537,345,o),
(523,345,cs),
(457,345,o),
(460,295,o),
(452,295,cs),
(445,295,o),
(408,292,o),
(403,307,cs),
(395,331,o),
(384,360,o),
(357,387,cs),
(350,394,o),
(343,397,o),
(339,397,cs),
(333,397,o),
(330,394,o),
(330,391,cs),
(330,389,o),
(331,388,o),
(332,387,cs),
(346,376,o),
(359,361,o),
(359,348,cs),
(359,340,o),
(353,326,o),
(353,310,cs),
(353,289,o),
(363,262,o),
(406,262,cs),
(457,262,o),
(507,262,o),
(558,262,cs),
(571,262,o),
(575,243,o),
(575,219,cs),
(575,185,o),
(566,142,o),
(560,127,cs),
(549,101,o),
(514,12,o),
(371,12,cs),
(228,12,o),
(284,155,o),
(195,310,cs),
(116,447,o),
(170,698,o),
(324,698,c),
(320,704,o),
(317,710,o),
(313,716,c),
(166,716,o),
(60,568,o),
(60,349,cs),
(60,130,o),
(229,-17,o),
(371,-17,cs),
(513,-17,o),
(592,79,o),
(610,86,cs),
(711,128,o),
(640,154,o),
(640,193,cs),
(640,218,o),
(618,263,o),
(618,272,cs),
(618,276,o),
(618,281,o),
(632,285,cs)
);
}
);
width = 727;
}
);
unicode = (71,103);
},
{
glyphname = H;
lastChange = "2024-05-18 04:24:19 +0000";
layers = (
{
backgroundImage = {
imagePath = "/Users/jillymun/Desktop/Screenshot 2024-05-03 at 7.09.03 AM.png";
locked = 1;
pos = (-61,-176);
scale = (3.5086,3.5086);
};
layerId = m01;
shapes = (
{
closed = 1;
nodes = (
(36,716,l),
(28,710,o),
(29,702,o),
(36,698,c),
(54,697,o),
(76,698,o),
(83,698,cs),
(102,698,o),
(121,668,o),
(121,650,cs),
(124,485,o),
(127,321,o),
(130,156,cs),
(131,127,o),
(129,82,o),
(124,69,cs),
(109,32,o),
(85,3,o),
(58,-24,cs),
(52,-30,o),
(63,-39,o),
(70,-33,cs),
(122,10,o),
(185,87,o),
(177,217,c),
(172,386,ls),
(171,485,o),
(168,487,o),
(167,586,c),
(170,604,o),
(173,616,o),
(179,625,cs),
(195,649,o),
(208,678,o),
(208,716,c)
);
},
{
closed = 1;
nodes = (
(588,127,o),
(586,82,o),
(581,69,cs),
(566,32,o),
(542,3,o),
(515,-24,cs),
(509,-30,o),
(520,-39,o),
(527,-33,cs),
(579,10,o),
(642,87,o),
(634,217,c),
(629,386,ls),
(628,485,o),
(626,487,o),
(625,586,c),
(628,604,o),
(631,616,o),
(637,625,cs),
(653,649,o),
(666,678,o),
(666,716,c),
(630,716,o),
(594,716,o),
(558,716,cs),
(548,716,o),
(550,698,o),
(558,698,cs),
(581,698,o),
(578,682,o),
(578,650,cs),
(581,485,o),
(584,321,o),
(587,156,cs)
);
},
{
closed = 1;
nodes = (
(590,405,l),
(164,404,l),
(164,386,l),
(589,387,l)
);
}
);
width = 691;
},
{
backgroundImage = {
imagePath = "/Users/jillymun/Desktop/Screenshot 2024-05-03 at 7.09.03 AM.png";
locked = 1;
pos = (-61,-176);
scale = (3.5086,3.5086);
};
layerId = m002;
shapes = (
{
closed = 1;
nodes = (
(36,716,l),
(28,710,o),
(29,702,o),
(36,698,c),
(54,697,o),
(76,698,o),
(83,698,cs),
(102,698,o),
(121,668,o),
(121,650,cs),
(124,485,o),
(127,321,o),
(130,156,cs),
(131,127,o),
(129,82,o),
(124,69,cs),
(109,32,o),
(85,3,o),
(58,-24,cs),
(52,-30,o),
(61,-33,o),
(70,-33,cs),
(357,-25,o),
(182,55,o),
(177,217,cs),
(172,386,ls),
(171,485,o),
(301,419,o),
(182,559,cs),
(149,598,o),
(187,623,o),
(197,625,cs),
(340,658,o),
(271,716,o),
(208,716,cs)
);
},
{
closed = 1;
nodes = (
(588,127,o),
(586,82,o),
(581,69,cs),
(566,32,o),
(542,3,o),
(515,-24,cs),
(509,-30,o),
(519,-34,o),
(527,-33,cs),
(724,-14,o),
(618,88,o),
(634,217,cs),
(654,382,ls),
(664,467,o),
(626,487,o),
(625,586,c),
(628,604,o),
(666,636,o),
(673,626,cs),
(715,567,o),
(731,700,o),
(666,716,c),
(630,716,o),
(594,716,o),
(558,716,cs),
(548,716,o),
(550,698,o),
(558,698,cs),
(581,698,o),
(578,682,o),
(578,650,cs),
(581,485,o),
(584,321,o),
(587,156,cs)
);
},
{
closed = 1;
nodes = (
(590,405,l),
(164,404,l),
(164,386,l),
(589,387,l)
);
}
);
width = 691;
}
);
unicode = (72,104);
},
{
glyphname = I;
lastChange = "2024-05-18 04:25:00 +0000";
layers = (
{
layerId = m01;
shapes = (
{
closed = 1;
nodes = (
(56,716,l),
(48,710,o),
(49,704,o),
(56,700,c),
(74,699,o),
(96,700,o),
(103,700,cs),
(122,700,o),
(141,668,o),
(141,650,cs),
(144,485,o),
(147,321,o),
(150,156,cs),
(151,127,o),
(149,82,o),
(144,69,cs),
(129,32,o),
(105,3,o),
(78,-24,cs),
(72,-30,o),
(83,-39,o),
(90,-33,cs),
(142,10,o),
(205,87,o),
(197,217,c),
(192,386,ls),
(191,485,o),
(188,487,o),
(187,586,c),
(190,604,o),
(193,616,o),
(199,625,cs),
(215,649,o),
(228,678,o),
(228,716,c)
);
},
{
closed = 1;
nodes = (
(267,113,o),
(237,108,o),
(220,98,cs),
(205,89,o),
(169,70,o),
(121,20,cs),
(73,-30,o),
(57,-42,o),
(57,-59,cs),
(57,-76,o),
(66,-81,o),
(74,-81,cs),
(85,-81,o),
(90,-72,o),
(90,-58,cs),
(90,-47,o),
(137,49,o),
(220,45,cs),
(261,43,o),
(320,32,o),
(328,32,c),
(328,54,o),
(329,65,o),
(328,75,cs),
(327,85,o),
(313,103,o),
(290,108,cs)
);
}
);
width = 328;
},
{
layerId = m002;
shapes = (
{
closed = 1;
nodes = (
(56,716,l),
(48,710,o),
(49,704,o),
(56,700,c),
(74,699,o),
(96,700,o),
(103,700,cs),
(122,700,o),
(141,668,o),
(141,650,cs),
(144,485,o),
(147,321,o),
(150,156,cs),
(151,127,o),
(149,82,o),
(144,69,cs),
(129,32,o),
(105,3,o),
(78,-24,cs),
(72,-30,o),
(83,-39,o),
(90,-33,cs),
(142,10,o),
(246,82,o),
(197,217,c),
(192,386,ls),
(191,485,o),
(341,492,o),
(219,568,cs),
(187,589,o),
(198,630,o),
(220,636,cs),
(274,650,o),
(306,755,o),
(228,716,c)
);
},
{
closed = 1;
nodes = (
(288,139,o),
(291,254,o),
(250,123,cs),
(245,108,o),
(169,70,o),
(121,20,cs),
(73,-30,o),
(57,-42,o),
(57,-59,cs),
(57,-76,o),
(66,-81,o),
(74,-81,cs),
(85,-81,o),
(90,-72,o),
(90,-58,cs),
(90,-47,o),
(137,9,o),
(220,5,cs),
(261,3,o),
(296,17,o),
(306,20,cs),
(391,42,o),
(329,65,o),
(328,75,cs),
(327,85,o),
(334,129,o),
(311,134,cs)
);
}
);
width = 328;
}
);
unicode = (73,105);
},
{
glyphname = J;
lastChange = "2024-05-18 04:25:29 +0000";
layers = (
{
layerId = m01;
shapes = (
{
closed = 1;
nodes = (
(54,716,l),
(46,710,o),
(47,704,o),
(54,700,c),
(72,699,o),
(94,700,o),
(101,700,cs),
(156,700,o),
(169,668,o),
(169,650,cs),
(172,485,o),
(168,324,o),
(172,111,cs),
(173,61,o),
(136,-17,o),
(127,-40,cs),
(101,-104,o),
(59,-154,o),
(13,-201,cs),
(2,-212,o),
(21,-227,o),
(33,-217,cs),
(124,-142,o),
(233,-9,o),
(219,217,c),
(220,386,ls),
(221,485,o),
(216,487,o),
(215,586,c),
(218,604,o),
(221,616,o),
(227,625,cs),
(243,649,o),
(256,678,o),
(256,716,c)
);
}
);
width = 296;
},
{
layerId = m002;
shapes = (
{
closed = 1;
nodes = (
(54,716,l),
(46,710,o),
(47,704,o),
(54,700,c),
(72,699,o),
(94,700,o),
(101,700,cs),
(156,700,o),
(169,668,o),
(169,650,cs),
(172,485,o),
(168,324,o),
(172,111,cs),
(173,61,o),
(136,-17,o),
(127,-40,cs),
(101,-104,o),
(59,-154,o),
(13,-201,cs),
(2,-212,o),
(19,-229,o),
(33,-217,cs),
(241,-45,o),
(214,-1,o),
(219,217,cs),
(222,345,ls),
(224,444,o),
(249,406,o),
(248,505,cs),
(248,546,o),
(221,616,o),
(227,625,cs),
(243,649,o),
(341,716,o),
(256,716,cs)
);
}
);
width = 296;
}
);
unicode = (74,106);
},
{
glyphname = K;
lastChange = "2024-05-18 03:50:51 +0000";
layers = (
{
backgroundImage = {
imagePath = "/Users/jillymun/Desktop/Screenshot 2024-05-10 at 9.40.20 AM.png";
locked = 1;
pos = (-48,-92);
scale = (5.2219,5.2219);
};
layerId = m01;
shapes = (
{
closed = 1;
nodes = (
(26,716,l),
(18,710,o),
(19,702,o),
(26,698,c),
(44,697,o),
(66,698,o),
(73,698,cs),
(92,698,o),
(111,668,o),
(111,650,cs),
(114,485,o),
(117,321,o),
(120,156,cs),
(121,127,o),
(119,82,o),
(114,69,cs),
(99,32,o),
(75,3,o),
(48,-24,cs),
(42,-30,o),
(53,-39,o),
(60,-33,cs),
(112,10,o),
(175,87,o),
(167,217,c),
(162,386,ls),
(161,485,o),
(158,487,o),
(157,586,c),
(160,604,o),
(163,616,o),
(169,625,cs),
(185,649,o),
(198,678,o),
(198,716,c)
);
},
{
closed = 1;
nodes = (
(144,517,o),
(139,511,o),
(139,505,cs),
(139,501,o),
(142,497,o),
(151,497,cs),
(153,497,o),
(154,497,o),
(156,497,cs),
(185,500,o),
(364,594,o),
(403,616,cs),
(514,679,o),
(579,763,o),
(587,775,cs),
(595,787,o),
(563,800,o),
(534,800,cs),
(527,800,o),
(493,800,o),
(485,772,cs),
(475,736,o),
(387,649,o),
(331,613,cs),
(304,595,o),
(213,546,o),
(145,518,cs)
);
},
{
closed = 1;
nodes = (
(413,468,o),
(427,234,o),
(440,194,cs),
(461,127,o),
(502,70,o),
(628,70,cs),
(744,70,o),
(717,70,o),
(742,70,cs),
(749,70,o),
(751,74,o),
(751,80,cs),
(751,108,o),
(727,139,o),
(691,139,cs),
(673,139,o),
(663,132,o),
(655,127,cs),
(638,115,o),
(632,111,o),
(605,111,cs),
(540,111,o),
(498,151,o),
(475,210,cs),
(460,249,o),
(452,477,o),
(276,555,cs),
(265,560,o),
(261,547,o),
(250,547,c)
);
}
);
width = 751;
},
{
backgroundImage = {
imagePath = "/Users/jillymun/Desktop/Screenshot 2024-05-10 at 9.40.20 AM.png";
locked = 1;
pos = (-48,-92);
scale = (5.2219,5.2219);
};
layerId = m002;
shapes = (
{
closed = 1;
nodes = (
(26,716,l),
(18,710,o),
(19,702,o),
(26,698,c),
(44,697,o),
(66,698,o),
(73,698,cs),
(92,698,o),
(111,668,o),
(111,650,cs),
(114,485,o),
(117,321,o),
(120,156,cs),
(121,127,o),
(119,82,o),
(114,69,cs),
(99,32,o),
(24,-29,o),
(-3,-56,cs),
(-9,-62,o),
(0,-69,o),
(9,-65,cs),
(406,88,o),
(175,87,o),
(167,217,c),
(162,386,ls),
(161,485,o),
(158,487,o),
(157,586,c),
(160,604,o),
(158,624,o),
(169,625,cs),
(260,635,o),
(302,751,o),
(198,738,cs)
);
},
{
closed = 1;
nodes = (
(144,517,o),
(139,511,o),
(139,505,cs),
(139,501,o),
(142,497,o),
(151,497,cs),
(153,497,o),
(154,497,o),
(156,497,cs),
(185,500,o),
(364,594,o),
(403,616,cs),
(514,679,o),
(419,769,o),
(605,727,cs),
(725,700,o),
(654,1030,o),
(614,825,cs),
(593,717,o),
(462,809,o),
(462,779,cs),
(462,743,o),
(387,649,o),
(331,613,cs),
(304,595,o),
(213,546,o),
(145,518,cs)
);
},
{
closed = 1;
nodes = (
(413,467,o),
(414,202,o),
(427,162,cs),
(448,95,o),
(486,69,o),
(611,44,cs),
(735,19,o),
(695,70,o),
(742,70,cs),
(833,70,o),
(723,133,o),
(746,155,cs),
(814,220,o),
(756,256,o),
(725,171,cs),
(695,88,o),
(688,203,o),
(639,190,cs),
(620,185,o),
(601,155,o),
(574,155,cs),
(509,155,o),
(468,212,o),
(462,275,cs),
(445,452,o),
(686,373,o),
(276,555,cs),
(265,560,o),
(263,546,o),
(250,546,c)
);
}
);
width = 751;
}
);
unicode = (75,107);
},
{
glyphname = L;
lastChange = "2024-05-18 04:26:17 +0000";
layers = (
{
layerId = m01;
shapes = (
{
closed = 1;
nodes = (
(26,716,l),
(18,710,o),
(19,702,o),
(26,698,c),
(44,697,o),
(66,698,o),
(73,698,cs),
(92,698,o),
(111,668,o),
(111,650,cs),
(114,485,o),
(117,321,o),
(120,156,cs),
(121,127,o),
(119,82,o),
(114,69,cs),
(99,32,o),
(75,3,o),
(48,-24,cs),
(42,-30,o),
(53,-39,o),
(60,-33,cs),
(112,10,o),
(175,87,o),
(167,217,c),
(162,386,ls),
(161,485,o),
(158,487,o),
(157,586,cs),
(157,604,o),
(163,616,o),
(169,625,cs),
(185,649,o),
(198,678,o),
(198,716,c)
);
},
{
closed = 1;
nodes = (
(498,127,o),
(496,82,o),
(491,69,cs),
(476,32,o),
(452,3,o),
(425,-24,cs),
(419,-30,o),
(430,-39,o),
(437,-33,cs),
(489,10,o),
(540,87,o),
(544,217,cs),
(549,399,o),
(545,240,o),
(545,256,cs),
(545,274,o),
(546,286,o),
(552,295,cs),
(568,319,o),
(581,348,o),
(581,386,c),
(545,386,o),
(509,386,o),
(473,386,cs),
(463,386,o),
(465,368,o),
(473,368,cs),
(496,368,o),
(493,352,o),
(493,320,cs),
(496,155,o),
(494,241,o),
(497,156,cs)
);
},
{
closed = 1;
nodes = (
(500,87,l),
(134,86,l),
(134,68,l),
(499,69,l)
);
}
);
width = 600;
},
{
layerId = m002;
shapes = (
{
closed = 1;
nodes = (
(26,716,l),
(18,710,o),
(19,702,o),
(26,698,c),
(44,697,o),
(66,698,o),
(73,698,cs),
(92,698,o),
(111,668,o),
(111,650,cs),
(114,485,o),
(117,321,o),
(120,156,cs),
(121,127,o),
(119,82,o),
(114,69,cs),
(99,32,o),
(75,3,o),
(48,-24,cs),
(42,-30,o),
(53,-39,o),
(60,-33,cs),
(112,10,o),
(358,121,o),
(281,205,cs),
(221,270,ls),
(152,344,o),
(158,487,o),
(157,586,cs),
(157,604,o),
(163,616,o),
(169,625,cs),
(185,649,o),
(198,678,o),
(198,716,c)
);
},
{
closed = 1;
nodes = (
(498,127,o),
(496,82,o),
(491,69,cs),
(476,32,o),
(452,3,o),
(425,-24,cs),
(419,-30,o),
(430,-39,o),
(437,-33,cs),
(489,10,o),
(647,82,o),
(590,172,cs),
(523,278,o),
(543,365,o),
(557,372,cs),
(571,379,o),
(585,328,o),
(591,337,cs),
(607,361,o),
(629,399,o),
(581,424,cs),
(548,441,o),
(509,386,o),
(473,386,cs),
(463,386,o),
(465,368,o),
(473,368,cs),
(496,368,o),
(493,352,o),
(493,320,cs),
(496,155,o),
(494,241,o),
(497,156,cs)
);
},
{
closed = 1;
nodes = (
(500,87,l),
(134,86,l),
(134,68,l),
(499,69,l)
);
}
);
width = 600;
}
);
unicode = (76,108);
},
{
glyphname = M;
lastChange = "2024-05-18 04:34:48 +0000";
layers = (
{
backgroundImage = {
imagePath = "/Users/jillymun/Desktop/Screenshot 2024-05-10 at 9.23.06 AM.png";
pos = (-35,-138);
scale = (5.7485,5.7485);
};
layerId = m01;
shapes = (
{
closed = 1;
nodes = (
(36,716,l),
(28,710,o),
(29,702,o),
(36,698,c),
(54,697,o),
(76,698,o),
(83,698,cs),
(102,698,o),
(121,668,o),
(121,650,cs),
(124,485,o),
(127,321,o),
(130,156,cs),
(131,127,o),
(129,82,o),
(124,69,cs),
(109,32,o),
(85,3,o),
(58,-24,cs),
(52,-30,o),
(63,-39,o),
(70,-33,cs),
(122,10,o),
(185,87,o),
(177,217,c),
(172,386,ls),
(171,485,o),
(168,487,o),
(167,586,c),
(170,604,o),
(173,616,o),
(179,625,cs),
(195,649,o),
(208,678,o),
(208,716,c)
);
},
{
closed = 1;
nodes = (
(596,716,l),
(588,710,o),
(589,702,o),
(596,698,c),
(614,697,o),
(636,698,o),
(643,698,cs),
(662,698,o),
(681,668,o),
(681,650,cs),
(684,485,o),
(687,321,o),
(690,156,cs),
(691,127,o),
(689,82,o),
(684,69,cs),
(669,32,o),
(645,3,o),
(618,-24,cs),
(612,-30,o),
(623,-39,o),
(630,-33,cs),
(682,10,o),
(745,87,o),
(737,217,c),
(732,386,ls),
(731,485,o),
(728,487,o),
(727,586,c),
(730,604,o),
(733,616,o),
(739,625,cs),
(755,649,o),
(768,678,o),
(768,716,c)
);
},
{
closed = 1;
nodes = (
(187,675,o),
(171,653,o),
(156,631,c),
(229,508,o),
(301,384,o),
(374,261,cs),
(437,153,o),
(506,139,o),
(547,139,cs),
(593,139,o),
(635,164,o),
(635,176,cs),
(635,184,o),
(619,188,o),
(572,188,cs),
(446,188,o),
(385,310,o),
(338,387,cs),
(285,474,o),
(242,586,o),
(202,697,c)
);
},
{
closed = 1;
nodes = (
(693,689,o),
(541,450,o),
(497,397,cs),
(471,366,o),
(393,319,o),
(380,317,cs),
(345,312,o),
(388,226,o),
(421,238,cs),
(464,253,o),
(498,334,o),
(508,352,cs),
(572,470,o),
(626,554,o),
(691,599,c),
(695,688,l)
);
}
);
width = 808;
},
{
backgroundImage = {
imagePath = "/Users/jillymun/Desktop/Screenshot 2024-05-10 at 9.23.06 AM.png";
pos = (-35,-138);
scale = (5.7485,5.7485);
};
layerId = m002;
shapes = (
{
closed = 1;
nodes = (
(36,716,l),
(28,710,o),
(29,702,o),
(36,698,c),
(54,697,o),
(76,698,o),
(83,698,cs),
(102,698,o),
(121,668,o),
(121,650,cs),
(124,485,o),
(149,316,o),
(64,224,cs),
(42,200,o),
(129,82,o),
(124,69,cs),
(109,32,o),
(85,3,o),
(58,-24,cs),
(52,-30,o),
(63,-39,o),
(70,-33,cs),
(122,10,o),
(269,87,o),
(228,213,cs),
(172,386,ls),
(141,483,o),
(168,487,o),
(167,586,c),
(170,604,o),
(173,616,o),
(179,625,cs),
(195,649,o),
(208,678,o),
(208,716,c)
);
},
{
closed = 1;
nodes = (
(596,716,l),
(588,710,o),
(589,702,o),
(596,698,c),
(614,697,o),
(636,698,o),
(643,698,cs),
(662,698,o),
(681,668,o),
(681,650,cs),
(684,485,o),
(687,321,o),
(690,156,cs),
(691,127,o),
(689,82,o),
(684,69,cs),
(669,32,o),
(645,3,o),
(618,-24,cs),
(612,-30,o),
(623,-39,o),
(630,-33,cs),
(682,10,o),
(846,45,o),
(798,188,cs),
(732,386,ls),
(699,485,o),
(728,487,o),
(727,586,c),
(730,604,o),
(733,616,o),
(739,625,cs),
(755,649,o),
(895,716,o),
(768,716,c)
);
},
{
closed = 1;
nodes = (
(187,675,o),
(171,653,o),
(156,631,c),
(229,508,o),
(301,384,o),
(374,261,cs),
(437,153,o),
(506,117,o),
(547,117,cs),
(593,117,o),
(627,150,o),
(635,157,cs),
(699,219,o),
(662,372,o),
(581,244,cs),
(514,139,o),
(385,310,o),
(338,387,cs),
(285,474,o),
(242,586,o),
(202,697,c)
);
},
{
closed = 1;
nodes = (
(693,689,o),
(541,450,o),
(497,397,cs),
(471,366,o),
(459,389,o),
(446,387,cs),
(411,382,o),
(388,226,o),
(421,238,cs),
(464,253,o),
(498,334,o),
(508,352,cs),
(572,470,o),
(626,554,o),
(691,599,c),
(695,688,l)
);
}
);
width = 808;
}
);
unicode = (77,109);
},
{
glyphname = N;
lastChange = "2024-05-18 04:18:12 +0000";
layers = (
{
backgroundImage = {
imagePath = "/Users/jillymun/Desktop/Screenshot 2024-05-03 at 6.40.22 AM.png";
locked = 1;
pos = (-34,-153);
scale = (3.5539,3.5539);
};
layerId = m01;
shapes = (
{
closed = 1;
nodes = (
(209,594,o),
(200,655,o),
(224,716,c),
(36,716,l),
(28,710,o),
(29,704,o),
(36,700,c),
(54,699,o),
(76,700,o),
(83,700,cs),
(102,700,o),
(121,668,o),
(121,650,cs),
(124,485,o),
(127,321,o),
(130,156,cs),
(131,127,o),
(129,82,o),
(124,69,cs),
(109,32,o),
(85,3,o),
(58,-24,cs),
(52,-30,o),
(63,-39,o),
(70,-33,cs),
(122,10,o),
(185,87,o),
(177,217,c),
(172,386,ls),
(171,485,o),
(169,470,o),
(168,569,c),
(240,425,o),
(293,352,o),
(339,292,cs),
(410,200,o),
(470,143,o),
(581,69,c),
(566,32,o),
(542,3,o),
(515,-24,cs),
(509,-30,o),
(520,-39,o),
(527,-33,cs),
(579,10,o),
(642,87,o),
(634,217,c),
(629,386,ls),
(628,485,o),
(626,487,o),
(625,586,c),
(628,604,o),
(631,616,o),
(637,625,cs),
(653,649,o),
(666,678,o),
(666,716,c),
(630,716,o),
(594,716,o),
(558,716,cs),
(548,716,o),
(550,700,o),
(558,700,cs),
(581,700,o),
(578,682,o),
(578,650,cs),
(581,485,o),
(584,321,o),
(587,156,c),
(418,216,o),
(313,350,o),
(239,524,cs)
);
}
);
width = 706;
},
{
backgroundImage = {
imagePath = "/Users/jillymun/Desktop/Screenshot 2024-05-03 at 6.40.22 AM.png";
locked = 1;
pos = (-34,-153);
scale = (3.5539,3.5539);
};
layerId = m002;
shapes = (
{
closed = 1;
nodes = (
(204,591,o),
(200,655,o),
(224,716,c),
(36,716,l),
(28,710,o),
(29,704,o),
(36,700,c),
(54,699,o),
(76,700,o),
(83,700,cs),
(102,700,o),
(121,668,o),
(121,650,cs),
(124,485,o),
(127,321,o),
(130,156,cs),
(131,127,o),
(129,82,o),
(124,69,cs),
(109,32,o),
(85,3,o),
(58,-24,cs),
(52,-30,o),
(62,-37,o),
(70,-33,cs),
(278,70,o),
(224,210,o),
(200,292,cs),
(172,386,ls),
(143,482,o),
(169,470,o),
(168,569,c),
(240,425,o),
(293,352,o),
(339,292,cs),
(410,200,o),
(470,143,o),
(581,69,c),
(566,32,o),
(542,3,o),
(515,-24,cs),
(509,-30,o),
(520,-39,o),
(527,-33,cs),
(579,10,o),
(643,109,o),
(664,236,cs),
(686,366,ls),
(702,462,o),
(626,487,o),
(625,586,c),
(628,604,o),
(631,616,o),
(637,625,cs),
(653,649,o),
(738,781,o),
(705,800,cs),
(634,842,o),
(594,716,o),
(558,716,cs),
(548,716,o),
(550,700,o),
(558,700,cs),
(581,700,o),
(578,682,o),
(578,650,cs),
(581,485,o),
(584,321,o),
(587,156,c),
(509,402,o),
(424,168,o),
(239,524,cs)
);
}
);
width = 706;
}
);
unicode = (78,110);
},
{
glyphname = O;
lastChange = "2024-05-18 04:18:39 +0000";
layers = (
{
backgroundImage = {
imagePath = "/Users/jillymun/Desktop/Screenshot 2024-05-09 at 11.49.41 AM.png";
pos = (-29,-95);
scale = (2.8632,2.8632);
};
layerId = m01;
shapes = (
{
closed = 1;
nodes = (
(36,716,l),
(28,710,o),
(29,704,o),
(36,700,c),
(54,697,o),
(76,698,o),
(83,698,cs),
(102,698,o),
(121,668,o),
(121,650,cs),
(124,485,o),
(127,321,o),
(130,156,cs),
(131,127,o),
(129,82,o),
(124,69,cs),
(109,32,o),
(85,3,o),
(58,-24,cs),
(52,-30,o),
(63,-39,o),
(70,-33,cs),
(122,10,o),
(185,87,o),
(177,217,c),
(172,386,ls),
(171,485,o),
(168,487,o),
(167,586,c),
(170,604,o),
(173,616,o),
(179,625,cs),
(195,649,o),
(208,678,o),
(208,716,c)
);
},
{
closed = 1;
nodes = (
(588,127,o),
(586,82,o),
(581,69,cs),
(566,32,o),
(542,3,o),
(515,-24,cs),
(509,-30,o),
(520,-39,o),
(527,-33,cs),
(579,10,o),
(642,87,o),
(634,217,c),
(629,386,ls),
(628,485,o),
(626,487,o),
(625,586,c),
(628,604,o),
(631,616,o),
(637,625,cs),
(653,649,o),
(666,678,o),
(666,716,c),
(630,716,o),
(594,716,o),
(558,716,cs),
(548,716,o),
(550,700,o),
(558,700,cs),
(581,700,o),
(578,682,o),
(578,650,cs),
(581,485,o),
(584,321,o),
(587,156,cs)
);
},
{
closed = 1;
nodes = (
(590,716,l),
(164,715,l),
(164,697,l),
(589,698,l)
);
},
{
closed = 1;
nodes = (
(590,88,l),
(144,87,l),
(144,69,l),
(589,70,l)
);
}
);
width = 706;
},
{
backgroundImage = {
imagePath = "/Users/jillymun/Desktop/Screenshot 2024-05-09 at 11.49.41 AM.png";
pos = (-29,-95);
scale = (2.8632,2.8632);
};
layerId = m002;
shapes = (
{
closed = 1;
nodes = (
(36,716,l),
(28,710,o),
(29,704,o),
(36,700,c),
(54,697,o),
(76,698,o),
(83,698,cs),
(102,698,o),
(121,668,o),
(121,650,cs),
(124,485,o),
(127,321,o),
(130,156,cs),
(131,127,o),
(129,82,o),
(124,69,cs),
(109,32,o),
(85,3,o),
(58,-24,cs),
(52,-30,o),
(63,-39,o),
(70,-33,cs),
(122,10,o),
(243,162,o),
(235,292,c),
(189,377,ls),
(143,463,o),
(263,487,o),
(167,586,c),
(170,604,o),
(173,616,o),
(179,625,cs),
(195,649,o),
(208,678,o),
(208,716,c)
);
},
{
closed = 1;
nodes = (
(588,127,o),
(586,82,o),
(581,69,cs),
(566,32,o),
(542,3,o),
(515,-24,cs),
(509,-30,o),
(520,-39,o),
(527,-33,cs),
(579,10,o),
(704,132,o),
(679,217,cs),
(647,324,ls),
(618,420,o),
(626,487,o),
(625,586,c),
(628,604,o),
(631,616,o),
(637,625,cs),
(653,649,o),
(742,715,o),
(666,770,cs),
(638,791,o),
(594,716,o),
(558,716,cs),
(548,716,o),
(550,700,o),
(558,700,cs),
(581,700,o),
(578,682,o),
(578,650,cs),
(581,485,o),
(584,321,o),
(587,156,cs)
);
},
{
closed = 1;
nodes = (
(590,716,l),
(164,715,l),
(164,697,l),
(589,698,l)
);
},
{
closed = 1;
nodes = (
(590,88,l),
(144,87,l),
(144,69,l),
(589,70,l)
);
}
);
width = 706;
}
);
unicode = (79,111);
},
{
glyphname = P;
lastChange = "2024-05-18 04:19:56 +0000";
layers = (
{
layerId = m01;
shapes = (
{
closed = 1;
nodes = (
(579,698,o),
(615,698,o),
(651,698,cs),
(661,698,o),
(663,716,o),
(651,716,c),
(633,716,o),
(625,712,o),
(606,729,cs),
(568,763,o),
(528,759,o),
(482,716,c),
(360,716,o),
(158,716,o),
(36,716,c),
(28,710,o),
(29,702,o),
(36,698,c),
(54,697,o),
(76,698,o),
(83,698,cs),
(102,698,o),
(121,668,o),
(121,650,cs),
(124,485,o),
(127,321,o),
(130,156,cs),
(131,127,o),
(129,82,o),
(124,69,cs),
(109,32,o),
(85,3,o),
(58,-24,cs),
(52,-30,o),
(63,-39,o),
(70,-33,cs),
(122,10,o),
(185,87,o),
(177,217,c),
(172,403,ls),
(169,502,o),
(169,599,o),
(168,698,c),
(251,698,o),
(460,698,o),
(543,698,cs)
);
},
{
closed = 1;
nodes = (
(363,369,o),
(481,369,o),
(529,369,cs),
(564,369,o),
(577,384,o),
(577,415,cs),
(577,466,o),
(577,530,o),
(577,612,cs),
(577,637,o),
(577,637,o),
(578,650,cs),
(580,673,o),
(602,702,o),
(633,702,c),
(609,701,o),
(548,703,o),
(524,702,c),
(524,675,o),
(525,647,o),
(525,620,cs),
(525,537,o),
(524,480,o),
(524,415,cs),
(524,406,o),
(520,387,o),
(486,387,cs),
(474,387,o),
(381,387,o),
(356,387,cs),
(334,387,o),
(305,407,o),
(305,428,cs),
(305,455,o),
(305,475,o),
(305,502,cs),
(305,510,o),
(301,516,o),
(296,516,cs),
(292,516,o),
(287,510,o),
(287,497,cs),
(287,430,o),
(252,456,o),
(252,403,cs),
(252,389,o),
(261,369,o),
(292,369,cs)
);
}
);
width = 689;
},
{
layerId = m002;
shapes = (
{
closed = 1;
nodes = (
(579,698,o),
(616,705,o),
(651,698,cs),
(686,691,o),
(682,736,o),
(670,729,c),
(652,729,o),
(651,756,o),
(632,773,cs),
(594,807,o),
(506,800,o),
(482,716,c),
(360,716,o),
(158,716,o),
(36,716,c),
(28,710,o),
(29,702,o),
(36,698,c),
(54,697,o),
(76,698,o),
(83,698,cs),
(102,698,o),
(121,668,o),
(121,650,cs),
(124,485,o),
(127,321,o),
(130,156,cs),
(131,127,o),
(129,82,o),
(124,69,cs),
(109,32,o),
(85,3,o),
(58,-24,cs),
(52,-30,o),
(63,-39,o),
(70,-33,cs),
(122,10,o),
(233,98,o),
(209,224,cs),
(184,355,ls),
(163,465,o),
(169,599,o),
(168,698,c),
(251,698,o),
(460,698,o),
(543,698,cs)
);
},
{
closed = 1;
nodes = (
(363,369,o),
(481,369,o),
(529,369,cs),
(564,369,o),
(577,384,o),
(577,415,cs),
(577,466,o),
(652,516,o),
(616,585,cs),
(605,607,o),
(577,637,o),
(578,650,cs),
(580,673,o),
(602,702,o),
(633,702,c),
(609,701,o),
(548,703,o),
(524,702,c),
(524,675,o),
(525,647,o),
(525,620,cs),
(525,537,o),
(524,480,o),
(524,415,cs),
(524,406,o),
(520,387,o),
(486,387,cs),
(474,387,o),
(381,387,o),
(356,387,cs),
(334,387,o),
(314,417,o),
(329,428,cs),
(380,464,o),
(379,498,o),
(342,505,cs),
(334,507,o),
(361,549,o),
(325,560,cs),
(309,565,o),
(275,574,o),
(287,497,cs),
(297,430,o),
(252,456,o),
(252,403,cs),
(252,389,o),
(261,369,o),
(292,369,cs)
);
}
);
width = 689;
}
);
unicode = (80,112);
},
{
glyphname = Q;
lastChange = "2024-05-18 03:50:51 +0000";
layers = (
{
backgroundImage = {
imagePath = "/Users/jillymun/Desktop/Screenshot 2024-05-09 at 12.01.38 PM.png";
locked = 1;
pos = (30,-281);
scale = (3.7289,3.7289);
};
layerId = m01;
shapes = (
{
closed = 1;
nodes = (
(46,716,l),
(38,710,o),
(39,704,o),
(46,700,c),
(64,699,o),
(86,700,o),
(93,700,cs),
(112,700,o),
(131,668,o),
(131,650,cs),
(134,485,o),
(137,401,o),
(140,236,cs),
(141,207,o),
(139,162,o),
(134,149,cs),
(119,112,o),
(95,83,o),
(68,56,cs),
(62,50,o),
(73,41,o),
(80,47,cs),
(132,90,o),
(195,167,o),
(187,297,c),
(182,466,ls),
(181,495,o),
(178,487,o),
(177,586,c),
(180,604,o),
(183,616,o),
(189,625,cs),
(205,649,o),
(218,678,o),
(218,716,c)
);
},
{
closed = 1;
nodes = (
(518,207,o),
(516,162,o),
(511,149,cs),
(496,112,o),
(472,83,o),
(445,56,cs),
(439,50,o),
(450,41,o),
(457,47,cs),
(509,90,o),
(572,167,o),
(564,297,c),
(559,466,ls),
(558,495,o),
(556,487,o),
(555,586,c),
(558,604,o),
(561,616,o),
(567,625,cs),
(583,649,o),
(596,678,o),
(596,716,c),
(560,716,o),
(524,716,o),
(488,716,cs),
(478,716,o),
(480,700,o),
(488,700,cs),
(511,700,o),
(508,682,o),
(508,650,cs),
(511,485,o),
(514,401,o),
(517,236,cs)
);
},
{
closed = 1;
nodes = (
(520,716,l),
(174,715,l),
(174,697,l),
(519,698,l)
);
},
{
closed = 1;
nodes = (
(520,168,l),
(154,167,l),
(154,149,l),
(519,150,l)
);
},
{
closed = 1;
nodes = (
(311,122,o),
(311,110,o),
(275,68,cs),
(245,33,o),
(204,18,o),
(143,18,cs),
(125,18,o),
(104,-6,o),
(104,-17,cs),
(104,-31,o),
(145,-22,o),
(159,-22,cs),
(176,-22,o),
(183,-2,o),
(191,-6,cs),
(198,-10,o),
(250,-81,o),
(270,-112,cs),
(286,-137,o),
(313,-186,o),
(314,-201,c),
(400,-201,l),
(418,-166,o),
(465,-72,o),
(530,-3,cs),
(561,30,o),
(615,70,o),
(656,70,cs),
(703,70,o),
(748,70,o),
(794,70,c),
(794,83,o),
(794,97,o),
(794,110,cs),
(794,127,o),
(773,154,o),
(746,154,cs),
(720,154,o),
(679,146,o),
(656,133,cs),
(577,91,o),
(541,56,o),
(490,-6,cs),
(456,-48,o),
(398,-160,o),
(393,-162,cs),
(390,-163,o),
(383,-169,o),
(370,-169,cs),
(361,-169,o),
(351,-163,o),
(335,-149,cs),
(310,-128,o),
(225,-7,o),
(225,7,cs),
(225,12,o),
(240,17,o),
(251,25,cs),
(287,49,o),
(364,112,o),
(362,158,c),
(348,157,o),
(334,157,o),
(321,156,c)
);
}
);
width = 774;
},
{
backgroundImage = {
imagePath = "/Users/jillymun/Desktop/Screenshot 2024-05-09 at 12.01.38 PM.png";
locked = 1;
pos = (30,-281);
scale = (3.7289,3.7289);
};
layerId = m002;
shapes = (
{
closed = 1;
nodes = (
(46,716,l),
(38,710,o),
(39,704,o),
(46,700,c),
(64,699,o),
(86,700,o),
(93,700,cs),
(112,700,o),
(131,668,o),
(131,650,cs),
(134,485,o),
(137,401,o),
(140,236,cs),
(141,207,o),
(139,162,o),
(134,149,cs),
(119,112,o),
(95,83,o),
(68,56,cs),
(62,50,o),
(73,41,o),
(80,47,cs),
(132,90,o),
(318,288,o),
(250,347,cs),
(204,387,ls),
(180,408,o),
(184,478,o),
(198,515,cs),
(212,556,o),
(222,582,o),
(189,625,cs),
(171,648,o),
(218,678,o),
(218,716,c)
);
},
{
closed = 1;
nodes = (
(509,207,o),
(516,162,o),
(511,149,cs),
(496,112,o),
(472,83,o),
(445,56,cs),
(439,50,o),
(450,41,o),
(457,47,cs),
(509,90,o),
(549,168,o),
(564,297,cs),
(572,368,ls),
(577,417,o),
(666,500,o),
(588,586,cs),
(577,599,o),
(579,616,o),
(585,625,cs),
(601,649,o),
(635,690,o),
(596,716,cs),
(564,737,o),
(566,792,o),
(488,716,cs),
(479,707,o),
(480,700,o),
(488,700,cs),
(511,700,o),
(508,682,o),
(508,650,cs),
(511,485,o),
(561,390,o),
(517,236,cs)
);
},
{
closed = 1;
nodes = (
(520,716,l),
(174,715,l),
(174,697,l),
(519,698,l)
);
},
{
closed = 1;
nodes = (
(520,168,l),
(154,167,l),
(154,149,l),
(519,150,l)
);
},
{
closed = 1;
nodes = (
(311,122,o),
(311,110,o),
(275,68,cs),
(245,33,o),
(204,18,o),
(143,18,cs),
(125,18,o),
(104,-6,o),
(104,-17,cs),
(104,-31,o),
(145,-22,o),
(159,-22,cs),
(176,-22,o),
(183,-2,o),
(191,-6,cs),
(198,-10,o),
(250,-81,o),
(270,-112,cs),
(286,-137,o),
(313,-186,o),
(314,-201,c),
(400,-201,l),
(418,-166,o),
(464,-8,o),
(558,-5,cs),
(648,-2,o),
(615,70,o),
(656,70,cs),
(703,70,o),
(748,70,o),
(794,70,c),
(794,83,o),
(775,97,o),
(775,110,cs),
(775,127,o),
(878,155,o),
(787,193,cs),
(766,202,o),
(671,206,o),
(648,144,cs),
(617,60,o),
(534,62,o),
(483,0,cs),
(448,-43,o),
(398,-160,o),
(393,-162,cs),
(390,-163,o),
(383,-169,o),
(370,-169,cs),
(361,-169,o),
(351,-163,o),
(335,-149,cs),
(310,-128,o),
(225,-7,o),
(225,7,cs),
(225,12,o),
(239,23,o),
(251,25,cs),
(466,57,o),
(283,103,o),
(362,158,c),
(348,157,o),
(334,157,o),
(321,156,c)
);
}
);
width = 774;
}
);
unicode = (81,113);
},
{
glyphname = R;
lastChange = "2024-05-18 04:20:39 +0000";
layers = (
{
backgroundImage = {
imagePath = "/Users/jillymun/Desktop/Screenshot 2024-05-09 at 6.49.57 PM.png";
locked = 1;
pos = (-50,-75);
scale = (3.9963,3.9963);
};
layerId = m01;
shapes = (
{
closed = 1;
nodes = (
(507,407,o),
(502,468,o),
(502,496,cs),
(502,571,o),
(502,623,o),
(502,698,c),
(538,698,o),
(565,698,o),
(601,698,cs),
(611,698,o),
(613,716,o),
(601,716,c),
(583,716,o),
(575,712,o),
(556,729,cs),
(518,763,o),
(478,759,o),
(432,716,c),
(310,716,o),
(158,716,o),
(36,716,c),
(28,710,o),
(29,702,o),
(36,698,c),
(54,697,o),
(76,698,o),
(83,698,cs),
(102,698,o),
(121,668,o),
(121,650,cs),
(124,485,o),
(127,321,o),
(130,156,cs),
(131,127,o),
(129,82,o),
(124,69,cs),
(109,32,o),
(85,3,o),
(58,-24,cs),
(52,-30,o),
(63,-39,o),
(70,-33,cs),
(122,10,o),
(185,87,o),
(177,217,c),
(172,408,l),
(281,408,o),
(330,407,o),
(439,407,cs)
);
},
{
closed = 1;
nodes = (
(251,698,o),
(374,698,o),
(457,698,c),
(457,614,o),
(457,552,o),
(457,468,cs),
(457,444,o),
(447,425,o),
(432,425,cs),
(359,425,o),
(245,425,o),
(172,425,c),
(171,524,o),
(169,599,o),
(168,698,c)
);
},
{
closed = 1;
nodes = (
(331,375,o),
(396,260,o),
(416,221,cs),
(481,91,o),
(490,70,o),
(616,70,cs),
(732,70,o),
(705,70,o),
(730,70,cs),
(737,70,o),
(739,74,o),
(739,80,cs),
(739,108,o),
(715,139,o),
(679,139,cs),
(661,139,o),
(651,132,o),
(643,127,cs),
(626,115,o),
(620,111,o),
(593,111,cs),
(528,111,o),
(507,146,o),
(463,210,cs),
(439,245,o),
(340,417,o),
(289,417,cs),
(278,417,o),
(283,416,o),
(272,416,c)
);
}
);
width = 739;
},
{
backgroundImage = {
imagePath = "/Users/jillymun/Desktop/Screenshot 2024-05-09 at 6.49.57 PM.png";
locked = 1;
pos = (-50,-75);
scale = (3.9963,3.9963);
};
layerId = m002;
shapes = (
{
closed = 1;
nodes = (
(543,367,o),
(559,442,o),
(559,470,cs),
(559,545,o),
(502,623,o),
(502,698,c),
(538,698,o),
(565,698,o),
(601,698,cs),
(611,698,o),
(613,716,o),
(601,716,c),
(583,716,o),
(602,759,o),
(583,776,cs),
(545,810,o),
(478,759,o),
(432,716,c),
(310,716,o),
(158,716,o),
(36,716,c),
(28,710,o),
(29,702,o),
(36,698,c),
(54,697,o),
(76,698,o),
(83,698,cs),
(102,698,o),
(121,668,o),
(121,650,cs),
(124,485,o),
(127,321,o),
(130,156,cs),
(131,127,o),
(129,82,o),
(124,69,cs),
(109,32,o),
(85,3,o),
(58,-24,cs),
(52,-30,o),
(63,-39,o),
(70,-33,cs),
(122,10,o),
(213,107,o),
(199,210,cs),
(172,408,l),
(281,408,o),
(348,411,o),
(454,387,cs)
);
},
{
closed = 1;
nodes = (
(251,698,o),
(374,698,o),
(457,698,c),
(457,614,o),
(457,552,o),
(457,468,cs),
(457,444,o),
(447,425,o),
(432,425,cs),
(359,425,o),
(245,425,o),
(172,425,c),
(171,524,o),
(169,599,o),
(168,698,c)
);
},
{
closed = 1;
nodes = (
(331,375,o),
(396,260,o),
(416,221,cs),
(481,91,o),
(490,70,o),
(616,70,cs),
(732,70,o),
(705,70,o),
(730,70,cs),
(737,70,o),
(739,74,o),
(739,80,cs),
(739,108,o),
(734,183,o),
(705,162,cs),
(680,144,o),
(673,183,o),
(632,150,cs),
(616,137,o),
(620,111,o),
(593,111,cs),
(528,111,o),
(607,222,o),
(492,228,cs),
(444,231,o),
(340,417,o),
(289,417,cs),
(278,417,o),
(283,416,o),
(272,416,c)
);
}
);
width = 739;
}
);
unicode = (82,114);
},
{
glyphname = S;
lastChange = "2024-05-18 04:13:57 +0000";
layers = (
{
backgroundImage = {
imagePath = "/Users/jillymun/Desktop/Screenshot 2024-05-10 at 9.58.27 AM.png";
pos = (47,-57);
scale = (5.4407,5.4407);
};
layerId = m01;
shapes = (
{
closed = 1;
nodes = (
(487,698,o),
(523,698,o),
(559,698,cs),
(569,698,o),
(571,716,o),
(559,716,c),
(541,716,o),
(533,712,o),
(514,729,cs),
(476,763,o),
(446,759,o),
(400,716,c),
(278,716,o),
(332,716,o),
(210,716,c),
(202,710,o),
(204,702,o),
(211,698,c),
(229,698,o),
(231,698,o),
(238,698,cs),
(321,698,o),
(368,698,o),
(451,698,cs)
);
},
{
closed = 1;
nodes = (
(433,620,ls),
(433,612,o),
(434,600,o),
(432,590,cs),
(430,580,o),
(423,568,o),
(419,563,cs),
(414,556,o),
(346,475,o),
(341,467,cs),
(336,460,o),
(346,453,o),
(351,457,cs),
(387,486,o),
(453,539,o),
(458,544,cs),
(462,548,o),
(472,554,o),
(479,570,cs),
(483,579,o),
(485,608,o),
(485,612,cs),
(485,637,o),
(485,637,o),
(486,650,cs),
(488,673,o),
(510,702,o),
(541,702,c),
(517,701,o),
(456,703,o),
(432,702,c)
);
},
{
closed = 1;
nodes = (
(501,220,o),
(500,215,o),
(500,193,cs),
(503,82,o),
(501,140,o),
(504,82,cs),
(505,63,o),
(503,32,o),
(498,23,cs),
(483,-2,o),
(459,-22,o),
(432,-40,cs),
(426,-44,o),
(437,-50,o),
(444,-46,cs),
(496,-17,o),
(547,35,o),
(551,124,cs),
(556,247,o),
(552,139,o),
(552,150,cs),
(552,162,o),
(553,170,o),
(559,176,cs),
(575,193,o),
(588,212,o),
(588,238,c),
(552,238,o),
(516,238,o),
(480,238,c),
(442,243,o),
(395,238,o),
(280,283,cs),
(181,322,o),
(121,398,o),
(118,475,cs),
(115,552,o),
(138,676,o),
(224,704,c),
(213,716,l),
(181,716,o),
(60,682,o),
(60,492,cs),
(60,343,o),
(190,289,o),
(252,263,cs),
(317,236,o),
(450,220,o),
(496,220,cs)
);
},
{
closed = 1;
nodes = (
(517,87,l),
(151,86,l),
(151,68,l),
(516,69,l)
);
},
{
closed = 1;
nodes = (
(115,44,o),
(113,23,o),
(108,16,cs),
(93,-2,o),
(69,-17,o),
(42,-30,cs),
(36,-33,o),
(47,-39,o),
(54,-36,cs),
(106,-14,o),
(157,24,o),
(161,89,cs),
(166,180,o),
(162,101,o),
(162,109,cs),
(162,118,o),
(163,124,o),
(169,128,cs),
(185,140,o),
(198,155,o),
(198,174,c),
(162,174,o),
(126,174,o),
(90,174,cs),
(80,174,o),
(82,165,o),
(90,165,cs),
(113,165,o),
(110,157,o),
(110,141,cs),
(113,58,o),
(111,101,o),
(114,59,cs)
);
}
);
width = 608;
},
{
backgroundImage = {
imagePath = "/Users/jillymun/Desktop/Screenshot 2024-05-10 at 9.58.27 AM.png";
pos = (47,-57);
scale = (5.4407,5.4407);
};
layerId = m002;
shapes = (
{
closed = 1;
nodes = (
(487,698,o),
(523,698,o),
(559,698,cs),
(569,698,o),
(571,716,o),
(559,716,c),
(541,716,o),
(590,783,o),
(571,800,cs),
(533,834,o),
(446,759,o),
(400,716,c),
(278,716,o),
(332,716,o),
(210,716,c),
(202,710,o),
(204,702,o),
(211,698,c),
(229,698,o),
(231,698,o),
(238,698,cs),
(321,698,o),
(368,698,o),
(451,698,cs)
);
},
{
closed = 1;
nodes = (
(433,620,ls),
(433,612,o),
(434,600,o),
(432,590,cs),
(430,580,o),
(423,568,o),
(419,563,cs),
(414,556,o),
(346,475,o),
(341,467,cs),
(336,460,o),
(346,453,o),
(351,457,cs),
(387,486,o),
(439,480,o),
(476,509,cs),
(535,555,o),
(472,554,o),
(479,570,cs),
(483,579,o),
(501,606,o),
(501,610,cs),
(501,635,o),
(485,637,o),
(486,650,cs),
(488,673,o),
(510,702,o),
(541,702,c),
(517,701,o),
(456,703,o),
(432,702,c)
);
},
{
closed = 1;
nodes = (
(501,220,o),
(500,215,o),
(500,193,cs),
(503,82,o),
(501,140,o),
(504,82,cs),
(505,63,o),
(503,32,o),
(498,23,cs),
(483,-2,o),
(459,-22,o),
(432,-40,cs),
(426,-44,o),
(437,-50,o),
(444,-46,cs),
(496,-17,o),
(617,-33,o),
(580,44,cs),
(526,156,o),
(571,130,o),
(571,141,cs),
(571,153,o),
(541,168,o),
(565,182,cs),
(628,219,o),
(614,238,o),
(588,238,cs),
(552,238,o),
(516,238,o),
(480,238,c),
(442,243,o),
(395,238,o),
(280,283,cs),
(181,322,o),
(446,425,o),
(214,481,c),
(141,508,o),
(138,676,o),
(224,704,c),
(213,716,l),
(181,716,o),
(60,682,o),
(60,492,cs),
(60,343,o),
(190,289,o),
(252,263,cs),
(317,236,o),
(450,220,o),
(496,220,cs)
);
},
{
closed = 1;
nodes = (
(517,87,l),
(151,86,l),
(151,68,l),
(516,69,l)
);
},
{
closed = 1;
nodes = (
(115,44,o),
(113,23,o),
(108,16,cs),
(93,-2,o),
(69,-17,o),
(42,-30,cs),
(36,-33,o),
(47,-39,o),
(54,-36,cs),
(106,-14,o),
(157,24,o),
(161,89,cs),
(166,180,o),
(162,101,o),
(162,109,cs),
(162,118,o),
(163,124,o),
(169,128,cs),
(185,140,o),
(264,174,o),
(198,174,cs),
(162,174,o),
(126,174,o),
(90,174,cs),
(80,174,o),
(82,165,o),
(90,165,cs),
(113,165,o),
(110,157,o),
(110,141,cs),
(113,58,o),
(111,101,o),
(114,59,cs)
);
}
);
width = 608;
}
);
unicode = (83,115);
},
{
glyphname = T;
lastChange = "2024-05-18 04:05:59 +0000";
layers = (
{
backgroundImage = {
imagePath = "/Users/jillymun/Desktop/Screenshot 2024-05-10 at 6.54.47 AM.png";
pos = (-38,-66);
scale = (4.2615,4.2615);
};
layerId = m01;
shapes = (
{
closed = 1;
nodes = (
(614,697,ls),
(627,697,o),
(627,715,o),
(614,715,cs),
(172,716,ls),
(146,716,o),
(107,713,o),
(98,728,cs),
(89,743,o),
(83,759,o),
(71,759,cs),
(60,759,o),
(50,753,o),
(50,732,cs),
(50,679,o),
(49,625,o),
(50,572,c),
(69,572,o),
(83,572,o),
(101,588,cs),
(122,606,o),
(122,637,o),
(134,662,cs),
(152,700,o),
(180,697,o),
(233,697,cs)
);
},
{
closed = 1;
nodes = (
(326,631,o),
(281,596,o),
(218,497,cs),
(138,371,o),
(101,297,o),
(101,179,cs),
(101,61,o),
(193,-15,o),
(269,-15,cs),
(345,-15,o),
(397,56,o),
(416,70,cs),
(425,76,o),
(431,78,o),
(437,78,cs),
(443,78,o),
(448,76,o),
(452,74,cs),
(458,71,o),
(469,69,o),
(479,69,cs),
(498,69,o),
(517,77,o),
(517,107,cs),
(517,132,o),
(500,137,o),
(485,144,cs),
(474,149,o),
(444,178,o),
(444,233,cs),
(444,288,o),
(452,318,o),
(457,333,cs),
(460,342,o),
(454,351,o),
(447,351,cs),
(443,351,o),
(439,348,o),
(437,340,cs),
(431,318,o),
(426,237,o),
(426,221,cs),
(426,205,o),
(423,116,o),
(395,85,cs),
(367,54,o),
(313,13,o),
(270,13,cs),
(227,13,o),
(166,62,o),
(166,196,cs),
(166,330,o),
(245,467,o),
(260,493,cs),
(275,519,o),
(398,686,o),
(429,696,cs),
(434,698,o),
(436,699,o),
(436,700,cs),
(436,704,o),
(382,700,o),
(380,698,cs)
);
}
);
width = 624;
},
{
backgroundImage = {
imagePath = "/Users/jillymun/Desktop/Screenshot 2024-05-10 at 6.54.47 AM.png";
pos = (-38,-66);
scale = (4.2615,4.2615);
};
layerId = m002;
shapes = (
{
closed = 1;
nodes = (
(614,697,ls),
(627,697,o),
(627,715,o),
(614,715,cs),
(172,716,ls),
(146,716,o),
(260,864,o),
(138,753,cs),
(123,740,o),
(162,821,o),
(71,789,cs),
(28,774,o),
(50,753,o),
(50,732,cs),
(50,679,o),
(49,625,o),
(50,572,c),
(69,572,o),
(83,572,o),
(101,588,cs),
(122,606,o),
(122,637,o),
(134,662,cs),
(152,700,o),
(180,697,o),
(233,697,cs)
);
},
{
closed = 1;
nodes = (
(326,631,o),
(281,596,o),
(218,497,cs),
(138,371,o),
(101,297,o),
(101,179,cs),
(101,61,o),
(193,-15,o),
(269,-15,cs),
(345,-15,o),
(397,56,o),
(416,70,cs),
(425,76,o),
(431,78,o),
(437,78,cs),
(443,78,o),
(448,76,o),
(452,74,cs),
(458,71,o),
(463,32,o),
(494,49,cs),
(512,59,o),
(533,101,o),
(533,131,cs),
(533,156,o),
(566,170,o),
(554,187,cs),
(523,232,o),
(444,178,o),
(444,233,cs),
(444,288,o),
(479,278,o),
(494,288,cs),
(642,387,o),
(554,487,o),
(528,400,cs),
(500,307,o),
(437,401,o),
(425,328,cs),
(421,305,o),
(426,237,o),
(426,221,cs),
(426,205,o),
(423,116,o),
(395,85,cs),
(367,54,o),
(288,6,o),
(263,43,cs),
(236,82,o),
(326,130,o),
(229,196,cs),
(117,272,o),
(245,467,o),
(260,493,cs),
(275,519,o),
(398,686,o),
(429,696,cs),
(434,698,o),
(436,699,o),
(436,700,cs),
(436,704,o),
(382,700,o),
(380,698,cs)
);
}
);
width = 624;
}
);
unicode = (84,116);
},
{
glyphname = U;
lastChange = "2024-05-18 04:04:10 +0000";
layers = (
{
layerId = m01;
shapes = (
{
closed = 1;
nodes = (
(46,716,l),
(38,710,o),
(39,704,o),
(46,700,c),
(64,699,o),
(86,700,o),
(93,700,cs),
(112,700,o),
(131,668,o),
(131,650,cs),
(134,485,o),
(137,321,o),
(140,156,cs),
(141,127,o),
(139,82,o),
(134,69,cs),
(119,32,o),
(95,3,o),
(68,-24,cs),
(62,-30,o),
(73,-39,o),
(80,-33,cs),
(132,10,o),
(195,87,o),
(187,217,c),
(182,386,ls),
(181,485,o),
(178,487,o),
(177,586,c),
(180,604,o),
(183,616,o),
(189,625,cs),
(205,649,o),
(218,678,o),
(218,716,c)
);
},
{
closed = 1;
nodes = (
(598,127,o),
(596,82,o),
(591,69,cs),
(576,32,o),
(552,3,o),
(525,-24,cs),
(519,-30,o),
(530,-39,o),
(537,-33,cs),
(589,10,o),
(652,87,o),
(644,217,c),
(639,386,ls),
(638,485,o),
(636,487,o),
(635,586,c),
(638,604,o),
(641,616,o),
(647,625,cs),
(663,649,o),
(676,678,o),
(676,716,c),
(640,716,o),
(604,716,o),
(568,716,cs),
(558,716,o),
(560,700,o),
(568,700,cs),
(591,700,o),
(588,682,o),
(588,650,cs),
(591,485,o),
(594,321,o),
(597,156,cs)
);
},
{
closed = 1;
nodes = (
(600,88,l),
(154,87,l),
(154,69,l),
(599,70,l)
);
}
);
width = 716;
},
{
layerId = m002;
shapes = (
{
closed = 1;
nodes = (
(46,716,l),
(38,710,o),
(39,704,o),
(46,700,c),
(64,699,o),
(86,700,o),
(93,700,cs),
(112,700,o),
(131,668,o),
(131,650,cs),
(134,485,o),
(137,321,o),
(140,156,cs),
(141,127,o),
(139,82,o),
(134,69,cs),
(119,32,o),
(95,3,o),
(68,-24,cs),
(62,-30,o),
(73,-39,o),
(80,-33,cs),
(132,10,o),
(195,87,o),
(187,217,c),
(225,373,ls),
(248,469,o),
(178,487,o),
(177,586,c),
(180,604,o),
(179,622,o),
(189,625,cs),
(309,660,o),
(273,716,o),
(218,716,c)
);
},
{
closed = 1;
nodes = (
(598,127,o),
(596,82,o),
(591,69,cs),
(576,32,o),
(552,3,o),
(525,-24,cs),
(519,-30,o),
(530,-39,o),
(537,-33,cs),
(589,10,o),
(652,87,o),
(644,217,c),
(724,405,ls),
(763,496,o),
(636,487,o),
(635,586,c),
(638,604,o),
(685,621,o),
(694,625,cs),
(752,649,o),
(765,800,o),
(676,716,cs),
(649,691,o),
(604,716,o),
(568,716,cs),
(558,716,o),
(560,700,o),
(568,700,cs),
(591,700,o),
(588,682,o),
(588,650,cs),
(591,485,o),
(594,321,o),
(597,156,cs)
);
},
{
closed = 1;
nodes = (
(600,88,l),
(154,87,l),
(154,69,l),
(599,70,l)
);
}
);
width = 716;
}
);
unicode = (85,117);
},
{
glyphname = V;
lastChange = "2024-05-18 04:02:23 +0000";
layers = (
{
backgroundImage = {
imagePath = "/Users/jillymun/Desktop/Screenshot 2024-05-10 at 11.42.06 AM.png";
locked = 1;
pos = (-16,-102);
scale = (5.7735,5.7735);
};
layerId = m01;
shapes = (
{
closed = 1;
nodes = (
(577,406,ls),
(577,505,o),
(576,487,o),
(575,586,c),
(578,604,o),
(581,616,o),
(587,625,cs),
(603,649,o),
(616,678,o),
(616,716,c),
(580,716,o),
(544,716,o),
(508,716,cs),
(498,716,o),
(500,698,o),
(508,698,cs),
(531,698,o),
(528,682,o),
(528,650,cs),
(531,485,o),
(534,160,o),
(540,1,c),
(553,1,o),
(566,0,o),
(579,0,c)
);
},
{
closed = 1;
nodes = (
(111,327,o),
(161,-16,o),
(471,-16,cs),
(506,-16,o),
(537,-16,o),
(562,-16,cs),
(650,-16,o),
(633,-16,o),
(655,-16,cs),
(662,-16,o),
(666,-12,o),
(666,-7,cs),
(666,-3,o),
(662,2,o),
(654,2,cs),
(556,3,ls),
(516,3,o),
(502,3,o),
(469,3,cs),
(263,2,o),
(164,349,o),
(164,563,cs),
(164,580,o),
(162,615,o),
(169,625,cs),
(185,649,o),
(198,678,o),
(198,716,c),
(26,716,l),
(22,713,o),
(20,710,o),
(20,707,cs),
(20,703,o),
(22,700,o),
(26,698,c),
(44,697,o),
(66,698,o),
(73,698,cs),
(92,698,o),
(111,668,o),
(111,650,cs)
);
}
);
width = 676;
},
{
backgroundImage = {
imagePath = "/Users/jillymun/Desktop/Screenshot 2024-05-10 at 11.42.06 AM.png";
locked = 1;
pos = (-16,-102);
scale = (5.7735,5.7735);
};
layerId = m002;
shapes = (
{
closed = 1;
nodes = (
(577,406,ls),
(577,505,o),
(678,487,o),
(678,586,cs),
(678,649,o),
(646,580,o),
(635,636,cs),
(629,665,o),
(717,731,o),
(635,754,c),
(599,754,o),
(544,716,o),
(508,716,cs),
(498,716,o),
(500,698,o),
(508,698,cs),
(531,698,o),
(528,682,o),
(528,650,cs),
(531,485,o),
(534,160,o),
(540,1,c),
(553,1,o),
(566,0,o),
(579,0,c)
);
},
{
closed = 1;
nodes = (
(111,327,o),
(161,-16,o),
(471,-16,cs),
(506,-16,o),
(537,-16,o),
(562,-16,cs),
(650,-16,o),
(665,-9,o),
(685,4,cs),
(740,38,o),
(849,404,o),
(679,210,cs),
(658,186,o),
(712,22,o),
(654,15,cs),
(556,3,ls),
(516,-2,o),
(502,3,o),
(469,3,cs),
(263,2,o),
(308,287,o),
(200,454,cs),
(167,505,o),
(164,656,o),
(227,600,cs),
(310,526,o),
(395,779,o),
(218,749,cs),
(26,716,l),
(22,713,o),
(20,710,o),
(20,707,cs),
(20,703,o),
(22,700,o),
(26,698,c),
(44,697,o),
(66,698,o),
(73,698,cs),
(92,698,o),
(111,668,o),
(111,650,cs)
);
}
);
width = 676;
}
);
unicode = (86,118);
},
{
glyphname = W;
lastChange = "2024-05-18 04:03:30 +0000";
layers = (
{
layerId = m01;
shapes = (
{
closed = 1;
nodes = (
(819,406,ls),
(819,505,o),
(818,487,o),
(817,586,c),
(820,604,o),
(823,616,o),
(829,625,cs),
(845,649,o),
(858,678,o),
(858,716,c),
(822,716,o),
(786,716,o),
(750,716,cs),
(740,716,o),
(742,698,o),
(750,698,cs),
(773,698,o),
(770,682,o),
(770,650,cs),
(773,485,o),
(776,160,o),
(782,1,c),
(795,1,o),
(808,0,o),
(821,0,c)
);
},
{
closed = 1;
nodes = (
(111,327,o),
(91,-16,o),
(401,-16,cs),
(436,-16,o),
(467,-16,o),
(492,-16,cs),
(700,-16,o),
(683,-16,o),
(705,-16,cs),
(712,-16,o),
(716,-12,o),
(716,-7,cs),
(716,-3,o),
(712,2,o),
(704,2,cs),
(486,3,ls),
(446,3,o),
(432,3,o),
(399,3,cs),
(193,2,o),
(164,296,o),
(164,563,cs),
(164,580,o),
(162,615,o),
(169,625,cs),
(185,649,o),
(198,678,o),
(198,716,c),
(26,716,l),
(22,713,o),
(20,710,o),
(20,707,cs),
(20,703,o),
(22,700,o),
(26,698,c),
(44,697,o),
(66,698,o),
(73,698,cs),
(92,698,o),
(111,668,o),
(111,650,cs)
);
},
{
closed = 1;
nodes = (
(431,327,o),
(411,-16,o),
(721,-16,cs),
(756,-16,o),
(787,-16,o),
(812,-16,cs),
(900,-16,o),
(883,-16,o),
(905,-16,cs),
(912,-16,o),
(916,-12,o),
(916,-7,cs),
(916,-3,o),
(912,2,o),
(904,2,cs),
(806,3,ls),
(766,3,o),
(752,3,o),
(719,3,cs),
(513,2,o),
(484,296,o),
(484,563,cs),
(484,580,o),
(482,615,o),
(489,625,cs),
(505,649,o),
(518,678,o),
(518,716,c),
(346,716,l),
(342,713,o),
(340,710,o),
(340,707,cs),
(340,703,o),
(342,700,o),
(346,698,c),
(364,697,o),
(386,698,o),
(393,698,cs),
(412,698,o),
(431,668,o),
(431,650,cs)
);
}
);
width = 926;
},
{
layerId = m002;
shapes = (
{
closed = 1;
nodes = (
(819,406,ls),
(819,505,o),
(968,470,o),
(817,586,cs),
(803,597,o),
(789,623,o),
(829,625,cs),
(947,631,o),
(951,721,o),
(858,716,c),
(822,716,o),
(786,716,o),
(750,716,cs),
(740,716,o),
(742,698,o),
(750,698,cs),
(773,698,o),
(770,682,o),
(770,650,cs),
(773,485,o),
(776,160,o),
(782,1,c),
(795,1,o),
(808,0,o),
(821,0,c)
);
},
{
closed = 1;
nodes = (
(111,327,o),
(91,-16,o),
(401,-16,cs),
(436,-16,o),
(467,-16,o),
(492,-16,cs),
(700,-16,o),
(683,-16,o),
(705,-16,cs),
(712,-16,o),
(716,-12,o),
(716,-7,cs),
(716,-3,o),
(712,2,o),
(704,2,cs),
(486,3,ls),
(446,3,o),
(432,3,o),
(399,3,cs),
(193,2,o),
(269,327,o),
(164,563,cs),
(157,580,o),
(133,670,o),
(239,616,cs),
(264,603,o),
(410,716,o),
(198,716,cs),
(26,716,l),
(22,713,o),
(20,710,o),
(20,707,cs),
(20,703,o),
(22,700,o),
(26,698,c),
(44,697,o),
(66,698,o),
(73,698,cs),
(92,698,o),
(111,668,o),
(111,650,cs)
);
},
{
closed = 1;
nodes = (
(431,327,o),
(411,-16,o),
(721,-16,cs),
(756,-16,o),
(787,-16,o),
(812,-16,cs),
(900,-16,o),
(883,-16,o),
(905,-16,cs),
(912,-16,o),
(916,-12,o),
(916,-7,cs),
(916,-3,o),
(912,2,o),
(904,2,cs),
(806,3,ls),
(766,3,o),
(752,3,o),
(719,3,cs),
(513,2,o),
(636,296,o),
(484,563,cs),
(474,580,o),
(478,625,o),
(489,625,cs),
(589,625,o),
(676,714,o),
(518,716,c),
(346,716,l),
(342,713,o),
(340,710,o),
(340,707,cs),
(340,703,o),
(342,700,o),
(346,698,c),
(364,697,o),
(386,698,o),
(393,698,cs),
(412,698,o),
(431,668,o),
(431,650,cs)
);
}
);
width = 926;
}
);
unicode = (87,119);
},
{
glyphname = X;
lastChange = "2024-05-18 04:08:51 +0000";
layers = (
{
backgroundImage = {
imagePath = "/Users/jillymun/Desktop/Screenshot 2024-05-10 at 12.12.16 PM.png";
pos = (-7,-12);
scale = (4.2748,4.2748);
};
layerId = m01;
shapes = (
{
closed = 1;
nodes = (
(26,716,o),
(20,711,o),
(20,706,cs),
(20,702,o),
(25,697,o),
(35,697,cs),
(43,697,o),
(44,698,o),
(65,698,cs),
(80,698,o),
(105,695,o),
(118,677,cs),
(140,646,o),
(464,107,o),
(473,90,cs),
(485,67,o),
(481,53,o),
(465,54,cs),
(457,54,o),
(451,49,o),
(451,45,cs),
(451,40,o),
(456,36,o),
(465,36,c),
(548,36,o),
(629,36,o),
(712,36,cs),
(727,36,o),
(728,39,o),
(728,44,cs),
(728,49,o),
(723,54,o),
(706,54,cs),
(648,54,o),
(572,89,o),
(556,99,cs),
(540,109,o),
(496,155,o),
(478,189,cs),
(460,223,o),
(240,568,o),
(227,597,cs),
(219,615,o),
(202,645,o),
(202,665,cs),
(202,677,o),
(208,685,o),
(226,685,cs),
(230,685,o),
(234,685,o),
(237,685,cs),
(244,685,o),
(249,687,o),
(249,695,cs),
(249,718,o),
(224,716,o),
(197,716,cs),
(40,716,ls)
);
},
{
closed = 1;
nodes = (
(684,759,o),
(631,759,c),
(613,759,o),
(596,749,o),
(586,737,cs),
(576,725,o),
(569,723,o),
(550,723,cs),
(531,723,o),
(352,706,o),
(352,455,cs),
(352,204,o),
(301,110,o),
(184,110,cs),
(153,110,o),
(135,110,o),
(122,110,cs),
(107,110,o),
(92,118,o),
(75,149,cs),
(56,184,o),
(53,245,o),
(52,266,cs),
(51,284,o),
(47,285,o),
(43,285,cs),
(39,285,o),
(34,285,o),
(34,269,cs),
(34,135,o),
(37,186,o),
(36,46,cs),
(36,31,o),
(34,-18,o),
(45,-18,cs),
(67,-18,o),
(63,33,o),
(75,50,cs),
(89,69,o),
(127,72,o),
(171,70,c),
(309,70,o),
(379,169,o),
(379,424,cs),
(379,576,o),
(429,689,o),
(589,689,cs),
(611,689,o),
(611,668,o),
(611,655,cs),
(611,644,o),
(614,638,o),
(604,612,cs),
(601,604,o),
(564,567,o),
(561,563,cs),
(557,559,o),
(563,549,o),
(571,555,cs),
(595,573,o),
(640,602,o),
(643,605,cs),
(646,607,o),
(653,610,o),
(658,619,cs),
(661,624,o),
(663,643,o),
(663,647,cs),
(663,678,o)
);
}
);
width = 738;
},
{
backgroundImage = {
imagePath = "/Users/jillymun/Desktop/Screenshot 2024-05-10 at 12.12.16 PM.png";
pos = (-7,-12);
scale = (4.2748,4.2748);
};
layerId = m002;
shapes = (
{
closed = 1;
nodes = (
(26,713,o),
(20,711,o),
(20,706,cs),
(20,702,o),
(25,697,o),
(35,697,cs),
(43,697,o),
(44,698,o),
(65,698,cs),
(80,698,o),
(105,695,o),
(118,677,cs),
(140,646,o),
(464,107,o),
(473,90,cs),
(485,67,o),
(481,53,o),
(465,54,cs),
(457,54,o),
(451,49,o),
(451,45,cs),
(451,40,o),
(456,36,o),
(465,36,c),
(548,36,o),
(633,85,o),
(716,85,cs),
(731,85,o),
(732,88,o),
(732,93,cs),
(732,98,o),
(727,103,o),
(710,103,cs),
(652,103,o),
(572,89,o),
(556,99,cs),
(540,109,o),
(503,155,o),
(485,189,cs),
(467,223,o),
(240,568,o),
(227,597,cs),
(219,615,o),
(180,627,o),
(195,700,cs),
(197,712,o),
(225,724,o),
(243,724,cs),
(247,724,o),
(251,724,o),
(254,724,cs),
(261,724,o),
(266,726,o),
(266,734,cs),
(266,757,o),
(240,761,o),
(214,755,cs),
(40,716,ls)
);
},
{
closed = 1;
nodes = (
(759,784,o),
(638,784,cs),
(581,784,o),
(611,768,o),
(586,747,cs),
(574,737,o),
(569,723,o),
(550,723,cs),
(531,723,o),
(352,706,o),
(352,455,cs),
(352,204,o),
(301,110,o),
(184,110,cs),
(153,110,o),
(135,110,o),
(122,110,cs),
(107,110,o),
(157,197,o),
(140,228,cs),
(121,263,o),
(113,311,o),
(112,332,cs),
(111,350,o),
(107,351,o),
(103,351,cs),
(99,351,o),
(94,351,o),
(94,335,cs),
(94,201,o),
(37,186,o),
(36,46,cs),
(36,31,o),
(64,-40,o),
(75,-40,cs),
(97,-40,o),
(78,23,o),
(90,40,cs),
(104,59,o),
(127,72,o),
(171,70,c),
(365,70,o),
(416,259,o),
(391,359,cs),
(354,508,o),
(429,689,o),
(589,689,cs),
(611,689,o),
(611,668,o),
(611,655,cs),
(611,644,o),
(614,638,o),
(604,612,cs),
(601,604,o),
(564,567,o),
(561,563,cs),
(557,559,o),
(563,549,o),
(571,555,cs),
(595,573,o),
(594,524,o),
(638,545,cs),
(699,574,o),
(660,590,o),
(682,612,cs),
(697,627,o),
(731,640,o),
(704,677,cs),
(684,705,o)
);
}
);
width = 738;
}
);
unicode = (88,120);
},
{
glyphname = Y;
lastChange = "2024-05-18 04:10:18 +0000";
layers = (
{
backgroundImage = {
imagePath = "/Users/jillymun/Desktop/Screenshot 2024-05-10 at 11.55.45 AM.png";
locked = 1;
pos = (-5,-382);
scale = (6.4781,6.4781);
};
layerId = m01;
shapes = (
{
closed = 1;
nodes = (
(549,125,o),
(548,266,o),
(547,406,cs),
(547,505,o),
(546,487,o),
(545,586,cs),
(545,604,o),
(551,616,o),
(557,625,cs),
(573,649,o),
(586,678,o),
(586,716,c),
(550,716,o),
(514,716,o),
(478,716,cs),
(468,716,o),
(470,698,o),
(478,698,cs),
(501,698,o),
(498,682,o),
(498,650,cs),
(501,485,o),
(510,145,o),
(510,-14,cs),
(510,-87,o),
(477,-98,o),
(455,-98,cs),
(362,-98,o),
(268,-98,o),
(175,-98,cs),
(171,-98,o),
(157,-122,o),
(166,-122,cs),
(269,-122,o),
(371,-122,o),
(474,-122,cs),
(497,-122,o),
(549,-98,o),
(549,-15,cs)
);
},
{
closed = 1;
nodes = (
(111,412,o),
(131,69,o),
(441,69,cs),
(476,69,o),
(507,69,o),
(532,69,cs),
(620,69,o),
(603,69,o),
(625,69,cs),
(632,69,o),
(636,73,o),
(636,78,cs),
(636,82,o),
(632,87,o),
(624,87,cs),
(526,88,ls),
(486,88,o),
(472,88,o),
(439,88,cs),
(233,87,o),
(164,434,o),
(164,563,cs),
(164,580,o),
(162,615,o),
(169,625,cs),
(185,649,o),
(198,678,o),
(198,716,c),
(26,716,l),
(22,713,o),
(20,710,o),
(20,707,cs),
(20,703,o),
(22,700,o),
(26,698,c),
(44,697,o),
(66,698,o),
(73,698,cs),
(92,698,o),
(111,668,o),
(111,650,cs)
);
},
{
closed = 1;
nodes = (
(135,-130,o),
(133,-151,o),
(128,-158,cs),
(113,-176,o),
(89,-191,o),
(62,-204,cs),
(56,-207,o),
(67,-213,o),
(74,-210,cs),
(126,-188,o),
(177,-150,o),
(181,-85,cs),
(186,6,o),
(182,-73,o),
(182,-65,cs),
(182,-56,o),
(183,-50,o),
(189,-46,cs),
(205,-34,o),
(218,-19,o),
(218,0,c),
(182,0,o),
(146,0,o),
(110,0,cs),
(100,0,o),
(102,-9,o),
(110,-9,cs),
(133,-9,o),
(130,-17,o),
(130,-33,cs),
(133,-116,o),
(131,-73,o),
(134,-115,cs)
);
}
);
width = 646;
},
{
backgroundImage = {
imagePath = "/Users/jillymun/Desktop/Screenshot 2024-05-10 at 11.55.45 AM.png";
locked = 1;
pos = (-5,-382);
scale = (6.4781,6.4781);
};
layerId = m002;
shapes = (
{
closed = 1;
nodes = (
(549,125,o),
(654,259,o),
(565,399,cs),
(511,484,o),
(658,487,o),
(545,586,cs),
(529,600,o),
(551,616,o),
(557,625,cs),
(573,649,o),
(668,716,o),
(586,716,cs),
(550,716,o),
(514,716,o),
(478,716,cs),
(468,716,o),
(470,698,o),
(478,698,cs),
(501,698,o),
(498,682,o),
(498,650,cs),
(501,485,o),
(510,145,o),
(510,-14,cs),
(510,-87,o),
(477,-98,o),
(455,-98,cs),
(362,-98,o),
(268,-98,o),
(175,-98,cs),
(171,-98,o),
(157,-122,o),
(166,-122,cs),
(269,-122,o),
(371,-122,o),
(474,-122,cs),
(497,-122,o),
(549,-98,o),
(549,-15,cs)
);
},
{
closed = 1;
nodes = (
(111,412,o),
(131,69,o),
(441,69,cs),
(476,69,o),
(507,69,o),
(532,69,cs),
(620,69,o),
(603,69,o),
(625,69,cs),
(632,69,o),
(636,73,o),
(636,78,cs),
(636,82,o),
(632,87,o),
(624,87,cs),
(526,88,ls),
(486,88,o),
(472,88,o),
(439,88,cs),
(233,87,o),
(364,198,o),
(214,402,cs),
(128,519,o),
(198,594,o),
(205,604,cs),
(221,628,o),
(371,758,o),
(198,716,c),
(26,716,l),
(22,713,o),
(20,710,o),
(20,707,cs),
(20,703,o),
(22,700,o),
(26,698,c),
(44,697,o),
(66,698,o),
(73,698,cs),
(92,698,o),
(111,668,o),
(111,650,cs)
);
},
{
closed = 1;
nodes = (
(135,-130,o),
(133,-151,o),
(128,-158,cs),
(113,-176,o),
(89,-191,o),
(62,-204,cs),
(56,-207,o),
(67,-213,o),
(74,-210,cs),
(126,-188,o),
(164,-150,o),
(181,-85,cs),
(186,-66,o),
(192,-64,o),
(187,-45,cs),
(186,-40,o),
(163,-11,o),
(221,-33,cs),
(297,-62,o),
(331,31,o),
(218,31,cs),
(182,31,o),
(146,0,o),
(110,0,cs),
(100,0,o),
(102,-9,o),
(110,-9,cs),
(133,-9,o),
(130,-17,o),
(130,-33,cs),
(133,-116,o),
(131,-73,o),
(134,-115,cs)
);
}
);
width = 646;
}
);
unicode = (89,121);
},
{
glyphname = Z;
lastChange = "2024-05-18 04:16:34 +0000";
layers = (
{
backgroundImage = {
imagePath = "/Users/jillymun/Desktop/Screenshot 2024-05-10 at 12.03.44 PM.png";
locked = 1;
pos = (-56,-33);
scale = (4.539,4.539);
};
layerId = m01;
shapes = (
{
closed = 1;
nodes = (
(233,698,o),
(393,698,o),
(476,698,cs),
(512,698,o),
(548,698,o),
(584,698,cs),
(594,698,o),
(596,716,o),
(584,716,c),
(566,716,o),
(558,712,o),
(539,729,cs),
(501,763,o),
(461,759,o),
(415,716,c),
(293,716,o),
(181,716,o),
(59,716,c),
(51,710,o),
(52,702,o),
(59,698,c),
(77,697,o),
(143,698,o),
(150,698,cs)
);
},
{
closed = 1;
nodes = (
(233,70,o),
(443,70,o),
(526,70,cs),
(562,70,o),
(598,70,o),
(634,70,cs),
(644,70,o),
(646,88,o),
(634,88,c),
(616,88,o),
(608,84,o),
(589,101,cs),
(551,135,o),
(511,131,o),
(465,88,c),
(343,88,o),
(171,88,o),
(49,88,c),
(41,82,o),
(42,74,o),
(49,70,c),
(67,69,o),
(143,70,o),
(150,70,cs)
);
},
{
closed = 1;
nodes = (
(414,664,o),
(354,600,o),
(327,575,cs),
(300,550,o),
(25,304,o),
(25,131,cs),
(25,60,o),
(45,55,o),
(72,44,cs),
(101,32,o),
(142,23,o),
(142,34,cs),
(142,50,o),
(107,95,o),
(107,203,cs),
(107,260,o),
(209,405,o),
(273,476,cs),
(386,602,o),
(450,644,o),
(538,712,c),
(511,711,o),
(461,713,o),
(457,709,cs)
);
}
);
width = 662;
},
{
backgroundImage = {
imagePath = "/Users/jillymun/Desktop/Screenshot 2024-05-10 at 12.03.44 PM.png";
locked = 1;
pos = (-56,-33);
scale = (4.539,4.539);
};
layerId = m002;
shapes = (
{
closed = 1;
nodes = (
(233,698,o),
(393,698,o),
(476,698,cs),
(515,698,o),
(555,698,o),
(584,698,cs),
(594,698,o),
(596,716,o),
(584,716,c),
(566,716,o),
(595,771,o),
(576,788,cs),
(538,822,o),
(472,800,o),
(415,716,c),
(293,716,o),
(183,701,o),
(72,762,cs),
(-6,805,o),
(51,700,o),
(59,698,cs),
(77,694,o),
(143,698,o),
(150,698,cs)
);
},
{
closed = 1;
nodes = (
(233,70,o),
(443,70,o),
(526,70,cs),
(562,70,o),
(598,70,o),
(634,70,cs),
(644,70,o),
(646,88,o),
(634,88,c),
(616,88,o),
(608,84,o),
(589,101,c),
(631,219,o),
(485,234,o),
(454,179,cs),
(390,66,o),
(171,88,o),
(49,88,c),
(41,82,o),
(42,74,o),
(49,70,c),
(67,69,o),
(143,70,o),
(150,70,cs)
);
},
{
closed = 1;
nodes = (
(414,664,o),
(354,600,o),
(327,575,cs),
(300,550,o),
(25,304,o),
(25,131,cs),
(25,60,o),
(45,55,o),
(72,44,cs),
(101,32,o),
(142,23,o),
(142,34,cs),
(142,50,o),
(63,185,o),
(165,224,cs),
(351,295,o),
(209,405,o),
(273,476,cs),
(386,602,o),
(450,644,o),
(538,712,c),
(511,711,o),
(461,713,o),
(457,709,cs)
);
}
);
width = 662;
}
);
unicode = (90,122);
},
{
glyphname = zero;
lastChange = "2024-05-18 04:27:38 +0000";
layers = (
{
layerId = m01;
shapes = (
{
closed = 1;
nodes = (
(21,636,l),
(13,630,o),
(14,624,o),
(21,620,c),
(39,617,o),
(61,618,o),
(68,618,cs),
(87,618,o),
(106,588,o),
(106,570,cs),
(109,405,o),
(112,321,o),
(115,156,cs),
(116,127,o),
(114,82,o),
(109,69,cs),
(94,32,o),
(70,3,o),
(43,-24,cs),
(37,-30,o),
(48,-39,o),
(55,-33,cs),
(107,10,o),
(170,87,o),
(162,217,c),
(157,386,ls),
(155,465,o),
(153,407,o),
(152,506,c),
(155,524,o),
(158,536,o),
(164,545,cs),
(180,569,o),
(193,598,o),
(193,636,c)
);
},
{
closed = 1;
nodes = (
(462,127,o),
(460,82,o),
(455,69,cs),
(440,32,o),
(416,3,o),
(389,-24,cs),
(383,-30,o),
(394,-39,o),
(401,-33,cs),
(453,10,o),
(516,87,o),
(508,217,c),
(503,386,ls),
(501,465,o),
(500,407,o),
(499,506,c),
(502,524,o),
(505,536,o),
(511,545,cs),
(527,569,o),
(540,598,o),
(540,636,c),
(504,636,o),
(468,636,o),
(432,636,cs),
(422,636,o),
(424,620,o),
(432,620,cs),
(455,620,o),
(452,602,o),
(452,570,cs),
(455,405,o),
(458,321,o),
(461,156,cs)
);
},
{
closed = 1;
nodes = (
(464,636,l),
(149,635,l),
(149,617,l),
(463,618,l)
);
},
{
closed = 1;
nodes = (
(464,88,l),
(129,87,l),
(129,69,l),
(463,70,l)
);
}
);
width = 570;
},
{
layerId = m002;
shapes = (
{
closed = 1;
nodes = (
(21,636,l),
(13,630,o),
(14,624,o),
(21,620,c),
(39,617,o),
(61,618,o),
(68,618,cs),
(87,618,o),
(106,588,o),
(106,570,cs),
(109,405,o),
(112,321,o),
(115,156,cs),
(116,127,o),
(114,82,o),
(109,69,cs),
(94,32,o),
(70,3,o),
(43,-24,cs),
(37,-30,o),
(48,-39,o),
(55,-33,cs),
(107,10,o),
(170,87,o),
(162,217,c),
(160,329,ls),
(159,408,o),
(271,335,o),
(152,506,cs),
(142,521,o),
(180,534,o),
(188,540,cs),
(253,585,o),
(193,598,o),
(193,636,c)
);
},
{
closed = 1;
nodes = (
(462,127,o),
(460,82,o),
(455,69,cs),
(440,32,o),
(416,3,o),
(389,-24,cs),
(383,-30,o),
(394,-39,o),
(401,-33,cs),
(453,10,o),
(511,107,o),
(508,217,cs),
(503,386,ls),
(501,465,o),
(565,394,o),
(499,506,cs),
(489,524,o),
(530,536,o),
(536,545,cs),
(552,569,o),
(614,658,o),
(540,658,cs),
(504,658,o),
(468,636,o),
(432,636,cs),
(422,636,o),
(424,620,o),
(432,620,cs),
(455,620,o),
(452,602,o),
(452,570,cs),
(455,405,o),
(458,321,o),
(461,156,cs)
);
},
{
closed = 1;
nodes = (
(464,636,l),
(149,635,l),
(149,617,l),
(463,618,l)
);
},
{
closed = 1;
nodes = (
(464,88,l),
(129,87,l),
(129,69,l),
(463,70,l)
);
}
);
width = 570;
}
);
unicode = 48;
},
{
glyphname = one;
lastChange = "2024-05-18 04:28:02 +0000";
layers = (
{
layerId = m01;
shapes = (
{
closed = 1;
nodes = (
(46,636,l),
(38,630,o),
(39,622,o),
(46,618,c),
(64,617,o),
(91,618,o),
(98,618,cs),
(117,618,o),
(136,588,o),
(136,570,cs),
(139,405,o),
(142,321,o),
(145,156,cs),
(146,127,o),
(144,82,o),
(139,69,cs),
(124,32,o),
(100,3,o),
(73,-24,cs),
(67,-30,o),
(78,-39,o),
(85,-33,cs),
(137,10,o),
(200,87,o),
(192,217,c),
(187,386,ls),
(186,405,o),
(183,407,o),
(182,506,cs),
(182,524,o),
(188,536,o),
(194,545,cs),
(210,569,o),
(223,598,o),
(223,636,c)
);
}
);
width = 263;
},
{
layerId = m002;
shapes = (
{
closed = 1;
nodes = (
(46,636,l),
(38,630,o),
(39,622,o),
(46,618,c),
(64,617,o),
(91,618,o),
(98,618,cs),
(117,618,o),
(136,588,o),
(136,570,cs),
(139,405,o),
(142,321,o),
(145,156,cs),
(146,127,o),
(144,82,o),
(139,69,cs),
(124,32,o),
(100,3,o),
(73,-24,cs),
(67,-30,o),
(78,-39,o),
(85,-33,cs),
(137,10,o),
(267,75,o),
(240,163,cs),
(216,240,ls),
(177,366,o),
(239,387,o),
(182,506,cs),
(173,524,o),
(188,536,o),
(194,545,cs),
(210,569,o),
(295,647,o),
(223,636,c)
);
}
);
width = 263;
}
);
unicode = 49;
},
{
glyphname = two;
lastChange = "2024-05-18 04:28:40 +0000";
layers = (
{
layerId = m01;
shapes = (
{
closed = 1;
nodes = (
(248,70,o),
(308,70,o),
(391,70,cs),
(427,70,o),
(463,70,o),
(499,70,cs),
(509,70,o),
(511,88,o),
(499,88,c),
(481,88,o),
(473,84,o),
(454,101,c),
(416,135,o),
(376,131,o),
(330,88,c),
(208,88,o),
(186,88,o),
(64,88,c),
(56,82,o),
(57,74,o),
(64,70,c),
(82,69,o),
(158,70,o),
(165,70,cs)
);
},
{
closed = 1;
nodes = (
(79,484,o),
(95,438,o),
(112,438,cs),
(135,438,o),
(144,475,o),
(143,523,cs),
(142,572,o),
(197,631,o),
(271,631,cs),
(347,631,o),
(406,572,o),
(407,490,cs),
(409,393,o),
(341,365,o),
(287,343,cs),
(229,319,o),
(40,304,o),
(40,131,cs),
(40,60,o),
(60,55,o),
(87,44,cs),
(107,36,o),
(132,29,o),
(146,29,cs),
(153,29,o),
(157,31,o),
(157,34,cs),
(157,50,o),
(122,95,o),
(122,166,cs),
(122,260,o),
(204,286,o),
(279,309,cs),
(356,332,o),
(463,370,o),
(461,493,cs),
(460,572,o),
(389,649,o),
(279,649,cs),
(151,649,o),
(79,603,o),
(79,502,cs)
);
}
);
width = 527;
},
{
layerId = m002;
shapes = (
{
closed = 1;
nodes = (
(248,70,o),
(308,70,o),
(391,70,cs),
(427,70,o),
(463,70,o),
(499,70,cs),
(509,70,o),
(511,88,o),
(499,88,c),
(481,88,o),
(500,132,o),
(481,149,c),
(443,183,o),
(393,95,o),
(330,120,cs),
(217,165,o),
(186,88,o),
(64,88,c),
(56,82,o),
(57,74,o),
(64,70,c),
(82,69,o),
(158,70,o),
(165,70,cs)
);
},
{
closed = 1;
nodes = (
(79,484,o),
(95,438,o),
(112,438,cs),
(135,438,o),
(144,475,o),
(143,523,cs),
(142,572,o),
(197,631,o),
(271,631,cs),
(347,631,o),
(406,572,o),
(407,490,cs),
(409,393,o),
(341,365,o),
(287,343,cs),
(229,319,o),
(40,304,o),
(40,131,cs),
(40,60,o),
(60,55,o),
(87,44,cs),
(107,36,o),
(132,29,o),
(146,29,cs),
(153,29,o),
(157,31,o),
(157,34,cs),
(157,50,o),
(122,95,o),
(122,166,cs),
(122,260,o),
(277,330,o),
(343,291,cs),
(483,207,o),
(556,503,o),
(481,552,cs),
(414,596,o),
(389,649,o),
(279,649,cs),
(151,649,o),
(79,603,o),
(79,502,cs)
);
}
);
width = 527;
}
);
unicode = 50;
},
{
glyphname = three;
lastChange = "2024-05-18 04:29:04 +0000";
layers = (
{
layerId = m01;
shapes = (
{
closed = 1;
nodes = (
(285,360,o),
(360,393,o),
(358,490,cs),
(357,572,o),
(298,631,o),
(222,631,cs),
(148,631,o),
(93,572,o),
(94,523,cs),
(95,475,o),
(86,438,o),
(63,438,cs),
(46,438,o),
(30,484,o),
(30,502,cs),
(30,603,o),
(102,649,o),
(230,649,cs),
(340,649,o),
(411,572,o),
(412,493,cs),
(414,370,o),
(307,343,o),
(230,320,c),
(231,338,l)
);
},
{
closed = 1;
nodes = (
(132,320,o),
(128,338,o),
(146,338,c),
(219,338,o),
(333,338,o),
(406,338,c),
(419,373,o),
(459,392,o),
(493,378,cs),
(528,364,o),
(523,335,o),
(557,335,cs),
(566,335,o),
(565,321,o),
(557,321,cs),
(544,321,o),
(531,321,o),
(518,321,cs),
(488,321,o),
(476,277,o),
(473,240,cs),
(463,134,o),
(455,73,o),
(405,13,cs),
(355,-48,o),
(244,-96,o),
(173,-74,cs),
(132,-61,ls),
(116,-56,o),
(122,-46,o),
(138,-49,cs),
(257,-73,o),
(329,-15,o),
(371,40,c),
(413,95,o),
(407,233,o),
(406,321,c),
(297,321,o),
(250,320,o),
(141,320,cs)
);
}
);
width = 583;
},
{
layerId = m002;
shapes = (
{
closed = 1;
nodes = (
(285,360,o),
(360,393,o),
(358,490,cs),
(357,572,o),
(298,631,o),
(222,631,cs),
(148,631,o),
(93,572,o),
(94,523,cs),
(95,475,o),
(86,438,o),
(63,438,cs),
(46,438,o),
(30,484,o),
(30,502,cs),
(30,603,o),
(121,601,o),
(213,691,cs),
(338,813,o),
(403,585,o),
(466,529,cs),
(523,478,o),
(307,343,o),
(230,320,c),
(231,338,l)
);
},
{
closed = 1;
nodes = (
(132,320,o),
(128,338,o),
(146,338,c),
(219,338,o),
(333,338,o),
(406,338,c),
(419,373,o),
(459,392,o),
(493,378,cs),
(528,364,o),
(523,335,o),
(557,335,cs),
(566,335,o),
(565,321,o),
(557,321,cs),
(544,321,o),
(531,321,o),
(518,321,cs),
(488,321,o),
(453,219,o),
(477,190,cs),
(541,113,o),
(457,-3,o),
(407,-21,cs),
(333,-48,o),
(244,-96,o),
(173,-74,cs),
(132,-61,ls),
(116,-56,o),
(122,-46,o),
(138,-49,cs),
(257,-73,o),
(329,-15,o),
(371,40,c),
(413,95,o),
(407,233,o),
(406,321,c),
(297,321,o),
(250,320,o),
(141,320,cs)
);
}
);
width = 583;
}
);
unicode = 51;
},
{
glyphname = four;
lastChange = "2024-05-18 04:30:00 +0000";
layers = (
{
layerId = m01;
shapes = (
{
closed = 1;
nodes = (
(-4,636,o),
(182,635,o),
(30,635,cs),
(15,635,o),
(18,617,o),
(30,617,cs),
(46,617,o),
(49,617,o),
(62,617,cs),
(88,617,o),
(103,588,o),
(103,557,cs),
(103,511,o),
(103,323,o),
(103,269,cs),
(103,241,o),
(98,180,o),
(166,180,cs),
(275,180,o),
(324,181,o),
(433,181,c),
(433,198,l),
(360,198,o),
(246,198,o),
(173,198,cs),
(158,198,o),
(148,217,o),
(148,241,cs),
(148,325,o),
(148,552,o),
(148,636,c)
);
},
{
closed = 1;
nodes = (
(437,47,o),
(435,2,o),
(430,-11,cs),
(415,-48,o),
(391,-77,o),
(364,-104,cs),
(358,-110,o),
(369,-119,o),
(376,-113,cs),
(428,-70,o),
(491,7,o),
(483,137,c),
(478,306,ls),
(477,405,o),
(475,407,o),
(474,506,c),
(477,524,o),
(480,536,o),
(486,545,cs),
(502,569,o),
(515,598,o),
(515,636,c),
(479,636,o),
(443,636,o),
(407,636,cs),
(397,636,o),
(399,618,o),
(407,618,cs),
(430,618,o),
(427,602,o),
(427,570,cs),
(430,405,o),
(433,241,o),
(436,76,cs)
);
}
);
width = 555;
},
{
layerId = m002;
shapes = (
{
closed = 1;
nodes = (
(-4,636,o),
(182,635,o),
(30,635,cs),
(15,635,o),
(18,617,o),
(30,617,cs),
(46,617,o),
(49,617,o),
(62,617,cs),
(88,617,o),
(103,588,o),
(103,557,cs),
(103,511,o),
(103,323,o),
(103,269,cs),
(103,241,o),
(98,180,o),
(166,180,cs),
(275,180,o),
(339,181,o),
(448,181,c),
(448,198,l),
(375,198,o),
(438,268,o),
(254,208,cs),
(199,190,o),
(148,217,o),
(148,241,cs),
(148,325,o),
(148,552,o),
(148,636,c)
);
},
{
closed = 1;
nodes = (
(437,47,o),
(435,2,o),
(430,-11,cs),
(415,-48,o),
(391,-77,o),
(364,-104,cs),
(358,-110,o),
(368,-113,o),
(376,-113,cs),
(502,-113,o),
(487,16,o),
(483,137,cs),
(478,306,ls),
(476,386,o),
(537,400,o),
(490,483,cs),
(473,513,o),
(476,548,o),
(511,563,cs),
(553,581,o),
(594,636,o),
(515,636,cs),
(479,636,o),
(443,636,o),
(407,636,cs),
(397,636,o),
(399,618,o),
(407,618,cs),
(430,618,o),
(427,602,o),
(427,570,cs),
(430,405,o),
(433,241,o),
(436,76,cs)
);
}
);
width = 555;
}
);
unicode = 52;
},
{
glyphname = five;
lastChange = "2024-05-18 04:30:37 +0000";
layers = (
{
layerId = m01;
shapes = (
{
closed = 1;
nodes = (
(412,338,o),
(298,338,o),
(225,338,cs),
(210,338,o),
(200,357,o),
(200,381,cs),
(200,465,o),
(200,533,o),
(200,617,c),
(218,616,o),
(284,617,o),
(291,617,cs),
(374,617,o),
(381,617,o),
(464,617,cs),
(500,617,o),
(536,617,o),
(572,617,cs),
(582,617,o),
(584,635,o),
(572,635,c),
(554,635,o),
(546,631,o),
(527,648,cs),
(489,682,o),
(449,678,o),
(403,635,c),
(281,635,o),
(172,635,o),
(50,635,cs),
(35,635,o),
(38,617,o),
(50,617,cs),
(66,617,o),
(101,617,o),
(114,617,cs),
(140,617,o),
(155,588,o),
(155,557,cs),
(155,511,o),
(155,463,o),
(155,409,cs),
(155,381,o),
(150,320,o),
(218,320,cs),
(327,320,o),
(376,321,o),
(485,321,c),
(486,233,o),
(492,95,o),
(450,40,c),
(408,-15,o),
(336,-73,o),
(217,-49,cs),
(201,-46,o),
(195,-56,o),
(211,-61,cs),
(252,-74,ls),
(323,-96,o),
(434,-48,o),
(484,13,cs),
(534,73,o),
(542,134,o),
(552,240,cs),
(555,277,o),
(567,321,o),
(597,321,cs),
(610,321,o),
(623,321,o),
(636,321,cs),
(644,321,o),
(645,335,o),
(636,335,cs),
(602,335,o),
(607,364,o),
(572,378,cs),
(538,392,o),
(498,373,o),
(485,338,c)
);
}
);
width = 652;
},
{
layerId = m002;
shapes = (
{
closed = 1;
nodes = (
(412,338,o),
(269,319,o),
(231,380,cs),
(206,420,o),
(252,445,o),
(252,469,cs),
(252,553,o),
(200,533,o),
(200,617,c),
(218,616,o),
(284,617,o),
(291,617,cs),
(374,617,o),
(381,617,o),
(464,617,cs),
(500,617,o),
(536,617,o),
(572,617,cs),
(582,617,o),
(584,635,o),
(572,635,c),
(554,635,o),
(553,656,o),
(534,673,cs),
(496,707,o),
(449,678,o),
(403,635,c),
(281,635,o),
(172,635,o),
(50,635,cs),
(35,635,o),
(38,617,o),
(50,617,cs),
(66,617,o),
(101,617,o),
(114,617,cs),
(140,617,o),
(155,588,o),
(155,557,cs),
(155,511,o),
(155,463,o),
(155,409,cs),
(155,381,o),
(150,320,o),
(218,320,cs),
(327,320,o),
(376,321,o),
(485,321,c),
(486,233,o),
(492,95,o),
(450,40,c),
(408,-15,o),
(336,-73,o),
(217,-49,cs),
(201,-46,o),
(195,-56,o),
(211,-61,cs),
(252,-74,ls),
(323,-96,o),
(434,-48,o),
(484,13,cs),
(534,73,o),
(672,107,o),
(572,225,cs),
(549,253,o),
(567,321,o),
(597,321,cs),
(610,321,o),
(623,321,o),
(636,321,cs),
(644,321,o),
(645,335,o),
(636,335,cs),
(602,335,o),
(607,364,o),
(572,378,cs),
(538,392,o),
(498,373,o),
(485,338,c)
);
}
);
width = 652;
}
);
unicode = 53;
},
{
glyphname = six;
lastChange = "2024-05-18 04:30:48 +0000";
layers = (
{
layerId = m01;
shapes = (
{
closed = 1;
nodes = (
(453,117,o),
(453,148,cs),
(453,194,o),
(453,244,o),
(453,298,cs),
(453,326,o),
(458,387,o),
(390,387,cs),
(281,387,o),
(232,386,o),
(123,386,c),
(123,369,l),
(196,369,o),
(310,369,o),
(383,369,cs),
(398,369,o),
(408,350,o),
(408,326,cs),
(408,242,o),
(408,172,o),
(408,88,c),
(301,88,o),
(188,87,o),
(81,87,c),
(80,69,l),
(232,69,o),
(374,70,o),
(526,70,cs),
(541,70,o),
(538,88,o),
(526,88,cs),
(510,88,o),
(507,88,o),
(494,88,cs),
(468,88,o)
);
},
{
closed = 1;
nodes = (
(121,636,o),
(129,674,o),
(139,699,cs),
(166,765,o),
(243,786,o),
(372,779,cs),
(380,779,o),
(381,797,o),
(372,797,cs),
(290,797,o),
(75,852,o),
(75,546,c),
(77,399,ls),
(78,300,o),
(80,298,o),
(81,199,c),
(78,181,o),
(75,169,o),
(69,160,cs),
(53,136,o),
(40,107,o),
(40,69,c),
(76,69,o),
(112,69,o),
(148,69,cs),
(158,69,o),
(156,85,o),
(148,85,cs),
(125,85,o),
(129,103,o),
(128,135,cs),
(125,309,o),
(125,442,o),
(122,607,cs)
);
}
);
width = 556;
},
{
layerId = m002;
shapes = (
{
closed = 1;
nodes = (
(453,117,o),
(453,148,cs),
(453,194,o),
(520,231,o),
(520,285,cs),
(520,313,o),
(458,387,o),
(390,387,cs),
(281,387,o),
(232,386,o),
(123,386,c),
(123,369,l),
(196,369,o),
(310,369,o),
(383,369,cs),
(398,369,o),
(408,350,o),
(408,326,cs),
(408,242,o),
(408,172,o),
(408,88,c),
(301,88,o),
(188,87,o),
(81,87,c),
(80,69,l),
(232,69,o),
(374,70,o),
(526,70,cs),
(541,70,o),
(538,88,o),
(526,88,cs),
(510,88,o),
(507,88,o),
(494,88,cs),
(468,88,o)
);
},
{
closed = 1;
nodes = (
(180,582,o),
(129,674,o),
(139,699,cs),
(166,765,o),
(243,786,o),
(372,779,cs),
(380,779,o),
(381,797,o),
(372,797,cs),
(290,797,o),
(75,852,o),
(75,546,c),
(77,399,ls),
(78,300,o),
(80,298,o),
(81,199,c),
(78,181,o),
(75,169,o),
(69,160,cs),
(53,136,o),
(40,107,o),
(40,69,c),
(76,69,o),
(112,69,o),
(148,69,cs),
(158,69,o),
(156,85,o),
(148,85,cs),
(125,85,o),
(129,103,o),
(128,135,cs),
(125,309,o),
(184,388,o),
(181,553,cs)
);
}
);
width = 556;
}
);
unicode = 54;
},
{
glyphname = seven;
lastChange = "2024-05-18 04:30:58 +0000";
layers = (
{
layerId = m01;
shapes = (
{
closed = 1;
nodes = (
(201,617,o),
(357,617,o),
(440,617,cs),
(476,617,o),
(512,617,o),
(548,617,cs),
(558,617,o),
(560,635,o),
(548,635,c),
(530,635,o),
(522,631,o),
(503,648,cs),
(465,682,o),
(425,678,o),
(379,635,c),
(257,635,o),
(148,635,o),
(26,635,c),
(18,629,o),
(19,621,o),
(26,617,c),
(44,616,o),
(111,617,o),
(118,617,cs)
);
},
{
closed = 1;
nodes = (
(378,583,o),
(319,508,o),
(298,482,cs),
(220,383,o),
(138,223,o),
(138,50,cs),
(138,-21,o),
(158,-26,o),
(185,-37,cs),
(214,-49,o),
(251,-58,o),
(251,-47,cs),
(251,-31,o),
(216,14,o),
(216,122,cs),
(216,179,o),
(212,298,o),
(267,383,cs),
(365,536,o),
(414,563,o),
(502,631,c),
(475,630,o),
(425,632,o),
(421,628,cs)
);
}
);
width = 596;
},
{
layerId = m002;
shapes = (
{
closed = 1;
nodes = (
(201,617,o),
(357,617,o),
(440,617,cs),
(476,617,o),
(512,617,o),
(548,617,cs),
(558,617,o),
(560,635,o),
(548,635,c),
(530,635,o),
(522,631,o),
(503,648,cs),
(465,682,o),
(425,678,o),
(379,635,c),
(257,635,o),
(158,752,o),
(26,635,c),
(18,629,o),
(19,621,o),
(26,617,c),
(44,616,o),
(111,617,o),
(118,617,cs)
);
},
{
closed = 1;
nodes = (
(378,583,o),
(319,508,o),
(298,482,cs),
(220,383,o),
(138,223,o),
(138,50,cs),
(138,-21,o),
(158,-26,o),
(185,-37,cs),
(214,-49,o),
(251,-58,o),
(251,-47,cs),
(251,-31,o),
(325,14,o),
(325,122,cs),
(325,179,o),
(212,298,o),
(267,383,cs),
(365,536,o),
(465,500,o),
(502,631,c),
(475,630,o),
(425,632,o),
(421,628,cs)
);
}
);
width = 596;
}
);
unicode = 55;
},
{
glyphname = eight;
lastChange = "2024-05-18 04:31:40 +0000";
layers = (
{
layerId = m01;
shapes = (
{
closed = 1;
nodes = (
(492,407,o),
(487,468,o),
(487,496,cs),
(487,571,o),
(487,623,o),
(487,698,c),
(523,698,o),
(550,698,o),
(586,698,cs),
(596,698,o),
(598,716,o),
(586,716,c),
(568,716,o),
(560,712,o),
(541,729,cs),
(503,763,o),
(463,759,o),
(417,716,c),
(295,716,o),
(143,716,o),
(21,716,c),
(13,710,o),
(14,702,o),
(21,698,c),
(39,697,o),
(61,698,o),
(68,698,cs),
(87,698,o),
(106,668,o),
(106,650,cs),
(109,485,o),
(112,321,o),
(115,156,cs),
(116,127,o),
(114,82,o),
(109,69,cs),
(94,32,o),
(70,3,o),
(43,-24,cs),
(37,-30,o),
(48,-39,o),
(55,-33,cs),
(107,10,o),
(170,87,o),
(162,217,c),
(157,408,l),
(266,408,o),
(315,407,o),
(424,407,cs)
);
},
{
closed = 1;
nodes = (
(236,698,o),
(359,698,o),
(442,698,c),
(442,614,o),
(442,552,o),
(442,468,cs),
(442,444,o),
(432,425,o),
(417,425,cs),
(344,425,o),
(230,425,o),
(157,425,c),
(156,524,o),
(154,599,o),
(153,698,c)
);
},
{
closed = 1;
nodes = (
(442,479,l),
(442,395,o),
(442,213,o),
(442,129,cs),
(442,105,o),
(432,86,o),
(417,86,cs),
(344,86,o),
(200,86,o),
(127,86,c),
(127,69,l),
(236,69,o),
(315,68,o),
(424,68,cs),
(492,68,o),
(487,129,o),
(487,157,cs),
(487,232,o),
(487,404,o),
(487,479,c)
);
}
);
width = 604;
},
{
layerId = m002;
shapes = (
{
closed = 1;
nodes = (
(492,407,o),
(487,468,o),
(487,496,cs),
(487,571,o),
(487,623,o),
(487,698,c),
(523,698,o),
(550,698,o),
(586,698,cs),
(596,698,o),
(598,716,o),
(586,716,c),
(568,716,o),
(533,734,o),
(541,759,cs),
(568,839,o),
(407,775,o),
(331,750,cs),
(215,712,o),
(143,716,o),
(21,716,c),
(13,710,o),
(14,702,o),
(21,698,c),
(39,697,o),
(61,698,o),
(68,698,cs),
(87,698,o),
(106,668,o),
(106,650,cs),
(109,485,o),
(112,321,o),
(115,156,cs),
(116,127,o),
(114,82,o),
(109,69,cs),
(94,32,o),
(70,3,o),
(43,-24,cs),
(37,-30,o),
(48,-39,o),
(55,-33,cs),
(107,10,o),
(242,-42,o),
(194,213,cs),
(157,408,l),
(266,408,o),
(315,407,o),
(424,407,cs)
);
},
{
closed = 1;
nodes = (
(236,698,o),
(359,698,o),
(442,698,c),
(442,614,o),
(442,552,o),
(442,468,cs),
(442,444,o),
(432,425,o),
(417,425,cs),
(344,425,o),
(230,425,o),
(157,425,c),
(156,524,o),
(154,599,o),
(153,698,c)
);
},
{
closed = 1;
nodes = (
(442,479,l),
(442,395,o),
(442,213,o),
(442,129,cs),
(442,105,o),
(432,86,o),
(417,86,cs),
(344,86,o),
(200,86,o),
(127,86,c),
(127,69,l),
(236,69,o),
(315,68,o),
(424,68,cs),
(492,68,o),
(603,84,o),
(524,148,cs),
(466,195,o),
(487,404,o),
(487,479,c)
);
}
);
width = 604;
}
);
unicode = 56;
},
{
glyphname = nine;
lastChange = "2024-05-18 04:32:07 +0000";
layers = (
{
layerId = m01;
shapes = (
{
closed = 1;
nodes = (
(113,588,o),
(113,557,cs),
(113,511,o),
(113,463,o),
(113,409,cs),
(113,381,o),
(108,320,o),
(176,320,cs),
(285,320,o),
(334,321,o),
(443,321,c),
(443,338,l),
(370,338,o),
(256,338,o),
(183,338,cs),
(168,338,o),
(158,357,o),
(158,381,cs),
(158,465,o),
(158,533,o),
(158,617,c),
(265,617,o),
(378,618,o),
(485,618,c),
(486,636,l),
(334,636,o),
(192,635,o),
(40,635,cs),
(25,635,o),
(28,617,o),
(40,617,cs),
(56,617,o),
(59,617,o),
(72,617,cs),
(98,617,o)
);
},
{
closed = 1;
nodes = (
(445,62,o),
(437,24,o),
(427,-1,cs),
(400,-67,o),
(323,-88,o),
(194,-81,cs),
(186,-81,o),
(185,-99,o),
(194,-99,cs),
(276,-99,o),
(491,-154,o),
(491,152,c),
(489,299,ls),
(488,398,o),
(486,407,o),
(485,506,c),
(488,524,o),
(491,536,o),
(497,545,cs),
(513,569,o),
(526,598,o),
(526,636,c),
(490,636,o),
(454,636,o),
(418,636,cs),
(408,636,o),
(410,620,o),
(418,620,cs),
(441,620,o),
(438,602,o),
(438,570,cs),
(441,405,o),
(441,256,o),
(444,91,cs)
);
}
);
width = 546;
},
{
layerId = m002;
shapes = (
{
closed = 1;
nodes = (
(113,588,o),
(113,557,cs),
(113,511,o),
(113,463,o),
(113,409,cs),
(113,381,o),
(108,320,o),
(176,320,cs),
(285,320,o),
(334,321,o),
(443,321,c),
(443,338,l),
(370,338,o),
(256,338,o),
(183,338,cs),
(168,338,o),
(295,397,o),
(224,412,cs),
(144,429,o),
(158,533,o),
(158,617,c),
(265,617,o),
(378,618,o),
(485,618,c),
(486,636,l),
(334,636,o),
(192,635,o),
(40,635,cs),
(25,635,o),
(28,617,o),
(40,617,cs),
(56,617,o),
(59,617,o),
(72,617,cs),
(98,617,o)
);
},
{
closed = 1;
nodes = (
(445,62,o),
(468,-64,o),
(378,-53,cs),
(205,-32,o),
(323,-88,o),
(194,-81,cs),
(186,-81,o),
(185,-99,o),
(194,-99,cs),
(276,-99,o),
(526,-170,o),
(526,136,c),
(489,299,ls),
(468,391,o),
(551,359,o),
(485,506,c),
(488,524,o),
(491,536,o),
(497,545,cs),
(513,569,o),
(580,636,o),
(526,636,c),
(490,636,o),
(454,636,o),
(418,636,cs),
(408,636,o),
(410,620,o),
(418,620,cs),
(441,620,o),
(438,602,o),
(438,570,cs),
(441,405,o),
(441,256,o),
(444,91,cs)
);
}
);
width = 546;
}
);
unicode = 57;
},
